<?xml version="1.0" encoding="utf-8"?>
<!-- Generator: Adobe Illustrator 16.0.0, SVG Export Plug-In . SVG Version: 6.00 Build 0)  -->
<!DOCTYPE svg PUBLIC "-//W3C//DTD SVG 1.1//EN" "http://www.w3.org/Graphics/SVG/1.1/DTD/svg11.dtd">
<svg version="1.1" id="Layer_1" xmlns="http://www.w3.org/2000/svg" xmlns:xlink="http://www.w3.org/1999/xlink" x="0px" y="0px"
	 width="50px" height="50px" viewBox="0 0 50 50" enable-background="new 0 0 50 50" xml:space="preserve">
<polygon fill="#5DC4ED" points="24.353,24.503 18.321,30.54 23.625,35.844 26.77,32.7 26.77,26.92 "/>
<path fill="#5DC4ED" d="M10.19,25.232l-4.794,4.799c-0.031,0.029-0.051,0.066-0.08,0.098c-0.061,0.059-0.126,0.107-0.186,0.168
	c-3.319,3.319-3.319,8.701,0,12.021c3.319,3.32,8.701,3.316,12.021,0c0.06-0.063,0.111-0.125,0.168-0.188
	c0.03-0.026,0.067-0.049,0.097-0.079l4.794-4.795L10.19,25.232z"/>
<path fill="#5DC4ED" d="M22.939,23.089l-2.475-2.475c-1.562-1.563-4.095-1.563-5.657,0l-3.203,3.203l5.303,5.308L22.939,23.089z"/>
<polygon fill="#5DC4ED" points="23.556,22.565 24.97,23.979 26.77,22.18 26.77,19.352 "/>
<polygon fill="#5DC4ED" points="24.306,11.54 24.306,20.365 26.77,17.902 26.77,10.147 "/>
<polygon fill="#46A9DF" points="25.813,24.514 26.77,25.47 26.77,23.558 "/>
<path fill="#5DC4ED" d="M24.685,47.65c-1.771,0-3.208-1.279-3.208-2.855v-1.813h3.208h2.083v-8.903l-2.437,2.437l-0.025,0.025v5.025
	c0,0.199-0.168,0.358-0.375,0.358s-0.375-0.159-0.375-0.358v-4.412l-2.787,2.679v4.95c0,1.857,1.565,3.367,3.49,3.367h2.509v-0.5
	H24.685L24.685,47.65z"/>
<path fill="#5DC4ED" d="M26.146,1.843l-4.881,8.013c-0.191,0.309-0.328,0.64-0.414,1.002c-0.055,0.243-0.082,0.484-0.082,0.717
	v7.966c0.135,0.109,0.277,0.206,0.402,0.331l1.814,1.814l0.57-0.571v-9.506l-1.719-1.125l3.795-6.133
	c0.234,0.112,0.661,0.28,1.137,0.323v-3.33C26.49,1.398,26.259,1.583,26.146,1.843z"/>
<path fill="#46A9DF" d="M26.828,26.979l-0.061-0.06v5.78l0.061-0.061C28.391,31.078,28.391,28.544,26.828,26.979z"/>
<path fill="#46A9DF" d="M37.52,13.266c1.652-0.069,3.344,0.77,5.051,2.479c1.277,1.277,1.893,2.628,1.822,4.017
	c-0.131,2.625-2.598,4.676-2.631,4.704c-0.113,0.095-2.432,2.729-2.572,5.915c-0.082,1.818,0.662,3.526,2.213,5.076l3.447,3.088
	l2.855,0.027l-4.891-4.529c-1.133-1.134-1.684-2.332-1.629-3.563c0.097-2.297,1.838-4.463,1.847-4.473
	c0.13-0.104,3.174-2.616,3.356-6.134c0.103-1.981-0.707-3.847-2.404-5.545c-2.119-2.12-4.33-3.151-6.543-3.063
	c-2.989,0.117-4.85,2.249-4.871,2.283l-5.803,5.802v2.828l7.27-7.273C34.051,14.891,35.428,13.347,37.52,13.266z"/>
<polygon fill="#46A9DF" points="29.116,11.585 26.787,10.137 26.77,10.147 26.77,17.902 29.116,15.554 "/>
<path fill="#46A9DF" d="M32.77,44.783V17.555l-2.9,2.903v21.108c0,0.199-0.168,0.358-0.375,0.358s-0.375-0.159-0.375-0.358V21.209
	l-2.35,2.349v1.912l0.77,0.768c1.945,1.951,1.945,5.125-0.001,7.074l-0.769,0.767v8.903h2.067h3.208v1.813
	c0,1.576-1.438,2.855-3.208,2.855H26.77v0.5h2.508C31.202,48.15,32.77,46.641,32.77,44.783z"/>
<path fill="#46A9DF" d="M28.146,4.287l3.438,6.197l-1.723,1.064v3.255l1.996-1.997l0.002,0.002c0.148-0.16,0.467-0.469,0.904-0.814
	v-0.42c0-0.172-0.017-0.344-0.045-0.522c0-0.005,0-0.01,0-0.016c0-0.141-0.035-0.272-0.099-0.39
	c-0.044-0.149-0.093-0.284-0.136-0.367l-4.709-8.382c-0.115-0.333-0.436-0.562-0.797-0.574c-0.076-0.005-0.146,0.006-0.217,0.02
	v3.33C27.227,4.716,27.729,4.643,28.146,4.287z"/>
</svg>
