<?xml version="1.0" encoding="utf-8"?>
<!-- Generator: Adobe Illustrator 16.0.0, SVG Export Plug-In . SVG Version: 6.00 Build 0)  -->
<!DOCTYPE svg PUBLIC "-//W3C//DTD SVG 1.1//EN" "http://www.w3.org/Graphics/SVG/1.1/DTD/svg11.dtd">
<svg version="1.1" id="Layer_1" xmlns="http://www.w3.org/2000/svg" xmlns:xlink="http://www.w3.org/1999/xlink" x="0px" y="0px"
	 width="141px" height="141px" viewBox="0 0 141 141" enable-background="new 0 0 141 141" xml:space="preserve">
<path fill="#ACDD5E" d="M67.89,118.288v-3h3.831v-4.5H67.89v-3h3.831v-14.58H68.43v-3h3.291v-4.5H68.43v-3h3.291V78.35H68.43v-3
	h3.291V58.125h-3.292v-3h3.292v-4.359h-3.292v-3h3.292v-4.891h-3.292v-3h3.292V14.386H29.241c0.013,0-1.726,1.739-1.726,3.885
	v105.897c0,2.146,1.739,3.885,3.885,3.885h40.321v-9.765H67.89z M48.881,21.738c4.218,0,7.638,3.419,7.638,7.638
	c0,4.219-3.42,7.638-7.638,7.638c-4.218,0-7.638-3.419-7.638-7.638C41.243,25.157,44.663,21.738,48.881,21.738z M61.895,110.788
	h-25.89v-3h25.89V110.788z M61.895,103.288h-25.89v-3h25.89V103.288z M61.895,95.928h-25.89v-3h25.89V95.928z M61.895,88.038h-25.89
	v-3h25.89V88.038z M61.895,74.538h-25.89v-3h25.89V74.538z M61.895,67.178h-25.89v-3h25.89V67.178z M61.895,59.288h-25.89v-3h25.89
	V59.288z M36.005,49.871l0.728-7.389c0-2.421,2.401-4.385,4.823-4.385h15.225c2.421,0,4.385,1.963,4.385,4.385l0.729,7.389H36.005z"
	/>
<path fill="#8CC640" d="M114.204,124.168V29.97H101.9c-4.312,0-5.601-3.248-5.678-4.966V14.386h-2.275H71.721v25.489h35.877v3
	H71.721v4.891h35.877v3H71.721v4.359h35.877v3H71.721V75.35h35.877v3H71.721v4.358h35.877v3H71.721v4.5h35.877v3H71.721v14.58
	h35.336v3h0.002h-0.002H71.721v4.5h35.336v3h0.002h-0.002H71.721v9.765h38.598C112.465,128.053,114.204,126.314,114.204,124.168z"/>
<path fill="#8CC640" d="M98.732,14.387h-0.51v10.571c0.016,0.26,0.279,3.012,3.678,3.012h11.802
	C111.117,20.341,103.966,16.222,98.732,14.387z"/>
</svg>
