<?xml version="1.0" encoding="utf-8"?>
<!-- Generator: Adobe Illustrator 16.0.0, SVG Export Plug-In . SVG Version: 6.00 Build 0)  -->
<!DOCTYPE svg PUBLIC "-//W3C//DTD SVG 1.1//EN" "http://www.w3.org/Graphics/SVG/1.1/DTD/svg11.dtd">
<svg version="1.1" id="Layer_1" xmlns="http://www.w3.org/2000/svg" xmlns:xlink="http://www.w3.org/1999/xlink" x="0px" y="0px"
	 width="174px" height="192px" viewBox="0 0 174 192" enable-background="new 0 0 174 192" xml:space="preserve">
<path fill="#333333" d="M167.278,54.792c0-0.025-0.01-0.048-0.01-0.071c-0.008-0.35-0.063-0.687-0.144-1.014
	c-0.024-0.101-0.063-0.196-0.094-0.294c-0.087-0.264-0.191-0.514-0.322-0.756c-0.047-0.084-0.088-0.168-0.14-0.25
	c-0.188-0.303-0.405-0.59-0.659-0.838c-0.031-0.032-0.07-0.056-0.104-0.088c-0.236-0.219-0.496-0.408-0.774-0.574
	c-0.041-0.023-0.07-0.062-0.114-0.084L90.963,10.01c-1.364-0.755-3.02-0.758-4.386-0.018L11.273,50.806
	c-0.047,0.025-0.082,0.066-0.127,0.094c-0.269,0.158-0.521,0.34-0.75,0.547c-0.043,0.039-0.093,0.069-0.134,0.11
	c-0.256,0.25-0.477,0.534-0.669,0.839c-0.048,0.076-0.085,0.156-0.128,0.236c-0.135,0.245-0.245,0.5-0.334,0.768
	C9.1,53.498,9.066,53.592,9.04,53.693c-0.08,0.316-0.131,0.644-0.142,0.982c-0.002,0.036-0.015,0.066-0.015,0.102
	c0,0.008,0.002,0.013,0.002,0.021c0,0.009-0.002,0.017-0.002,0.024v82.228c0,0.371,0.056,0.726,0.139,1.069
	c0.023,0.095,0.057,0.183,0.085,0.272c0.083,0.271,0.188,0.522,0.315,0.769c0.047,0.09,0.091,0.178,0.144,0.266
	c0.188,0.307,0.401,0.6,0.656,0.854c0.002,0.004,0.004,0.006,0.006,0.006c0.258,0.258,0.554,0.471,0.866,0.656
	c0.035,0.021,0.063,0.059,0.101,0.077l74.628,42.384c0.052,0.027,0.108,0.039,0.161,0.064c0.24,0.125,0.492,0.227,0.757,0.311
	c0.093,0.027,0.184,0.063,0.274,0.084c0.342,0.08,0.694,0.139,1.063,0.139c0.368,0,0.722-0.059,1.063-0.139
	c0.094-0.021,0.184-0.057,0.273-0.084c0.266-0.084,0.518-0.186,0.758-0.311c0.053-0.025,0.108-0.037,0.161-0.064l74.632-42.384
	c0.036-0.021,0.063-0.056,0.102-0.077c0.313-0.188,0.607-0.398,0.863-0.656c0.002,0,0.004,0,0.004-0.002
	c0.256-0.256,0.469-0.549,0.658-0.854c0.051-0.084,0.094-0.17,0.141-0.257c0.13-0.245,0.232-0.5,0.316-0.77
	c0.027-0.094,0.063-0.181,0.086-0.272c0.084-0.349,0.143-0.705,0.143-1.079V54.824c0-0.006-0.002-0.012-0.002-0.017
	C167.276,54.801,167.278,54.795,167.278,54.792z M18.018,62.666L78.116,96.8l-60.098,32.575V62.666z M158.144,129.31l-59.51-32.845
	l59.51-33.799V129.31z M88.735,19.213l64.627,35.665l-64.813,36.81c-0.262,0.015-0.521,0.037-0.775,0.097l-64.912-36.87
	L88.735,19.213z M83.513,104.267v67.317L22.864,137.14L83.513,104.267z M92.647,171.584v-67.99l60.715,33.51L92.647,171.584z"/>
</svg>
