<?xml version="1.0" encoding="utf-8"?>
<!-- Generator: Adobe Illustrator 16.0.0, SVG Export Plug-In . SVG Version: 6.00 Build 0)  -->
<!DOCTYPE svg PUBLIC "-//W3C//DTD SVG 1.1//EN" "http://www.w3.org/Graphics/SVG/1.1/DTD/svg11.dtd">
<svg version="1.1" id="Layer_1" xmlns="http://www.w3.org/2000/svg" xmlns:xlink="http://www.w3.org/1999/xlink" x="0px" y="0px"
	 width="174px" height="192px" viewBox="0 0 174 192" enable-background="new 0 0 174 192" xml:space="preserve">
<path fill="#333333" d="M11.024,170.986c-0.317,0-0.638-0.029-0.958-0.093c-2.349-0.457-4.044-2.515-4.044-4.907V28.896
	c0-2.761,2.239-5,5-5H66.55c1.663,0,3.217,0.827,4.146,2.206c0.929,1.379,1.112,3.13,0.488,4.671l-55.528,137.09
	C14.88,169.778,13.027,170.986,11.024,170.986z M16.021,33.896v106.428L59.13,33.896H16.021z"/>
<path fill="#333333" d="M124.598,170.986h-23.429c-2,0-3.808-1.191-4.596-3.03l-10.59-24.704H64.102
	c-1.684,0-3.255-0.848-4.179-2.255s-1.078-3.186-0.41-4.731l24.479-56.553c0.792-1.83,2.595-3.014,4.588-3.014
	c0.004,0,0.008,0,0.012,0c1.998,0.005,3.801,1.198,4.586,3.035l36.018,84.288c0.66,1.545,0.501,3.317-0.425,4.72
	C127.845,170.143,126.277,170.986,124.598,170.986z M104.466,160.986h12.558L88.551,94.354l-16.836,38.898H89.28
	c2,0,3.808,1.191,4.596,3.03L104.466,160.986z"/>
<path fill="#333333" d="M165.857,169.545c-1.98,0-3.816-1.18-4.607-3.063L104.253,30.833c-0.648-1.544-0.481-3.31,0.445-4.704
	s2.489-2.233,4.164-2.233h56.997c2.762,0,5,2.239,5,5v135.649c0,2.381-1.679,4.431-4.012,4.901
	C166.517,169.513,166.185,169.545,165.857,169.545z M116.387,33.896l44.473,105.842V33.896H116.387z"/>
</svg>
