<?xml version="1.0" encoding="utf-8"?>
<!-- Generator: Adobe Illustrator 16.0.0, SVG Export Plug-In . SVG Version: 6.00 Build 0)  -->
<!DOCTYPE svg PUBLIC "-//W3C//DTD SVG 1.1//EN" "http://www.w3.org/Graphics/SVG/1.1/DTD/svg11.dtd">
<svg version="1.1" id="Layer_1" xmlns="http://www.w3.org/2000/svg" xmlns:xlink="http://www.w3.org/1999/xlink" x="0px" y="0px"
	 width="50px" height="50px" viewBox="0 0 50 50" enable-background="new 0 0 50 50" xml:space="preserve">
<g>
	<path fill="#46A9DF" d="M28.011,18.26c0.606,0.508,1.021,1.245,1.524,1.88c0.473-0.679,0.434-0.902-0.54-2.752
		c1.23,0.966,1.65,2.181,1.784,3.533c0.13,1.318-0.061,2.609-0.412,3.88c-0.138,0.5-0.278,1-0.413,1.499
		c-0.487,1.809-2.093,3.145-3.992,3.33c-0.331,0.032-0.649,0.039-0.962,0.033v0.985c1.342,0.015,2.698-0.374,4.086-1.269
		c0.24,3.23,2.335,4.572,5.067,5.293c-0.01,0.072-0.017,0.143-0.024,0.215c-2.938,2.035-5.875,4.072-8.885,6.156
		c-0.082-0.049-0.162-0.097-0.244-0.146v4.634c6.744,0,13.488,0,20.232,0c-1.035-4.779-3.358-8.605-7.934-10.787
		c-0.322-0.154-0.637-0.436-0.827-0.738c-1.044-1.645-1.611-3.449-1.712-5.4c-0.104-2.003,0.087-3.984,0.438-5.951
		c0.481-2.718,0.924-5.438,0.729-8.214c-0.245-3.48-1.611-6.311-4.713-8.143C29.248,5.139,27.169,4.452,25,4.247v11.682
		C26.023,16.681,27.039,17.444,28.011,18.26z"/>
	<path fill="#5DBFEA" d="M21.854,4.281c-4.117,0.501-6.98,2.748-8.502,6.638c-1.13,2.889-1.207,5.872-0.636,8.866
		c0.445,2.329,1.098,4.618,1.591,6.941c0.492,2.323,0.352,4.61-0.596,6.825c-0.286,0.668-0.718,1.08-1.407,1.361
		c-3.034,1.232-5.215,3.369-6.358,6.453c-0.497,1.35-0.79,2.775-1.178,4.166c6.744,0,13.487,0,20.231,0v-4.634
		c-3.269-1.935-6.438-3.817-9.542-6.071c0.463-0.188,0.784-0.313,1.101-0.445c0.578-0.242,1.163-0.471,1.729-0.736
		c1.441-0.678,2.315-1.775,2.468-3.396c0.022-0.24,0.078-0.479,0.138-0.828c1.365,0.771,2.729,1.212,4.106,1.228v-0.985
		c-2.493-0.045-4.411-1.272-5.828-3.416c-0.654-0.99-1.105-2.116-1.713-3.305c-1.606-0.531-2.588-3.024-1.761-4.737
		c0.188-0.095,0.402-0.204,0.653-0.332c0.538-2.808,1.176-5.592,3.704-7.525c0.133,0.202,0.247,0.318,0.295,0.455
		c0.632,1.835,1.911,3.131,3.446,4.242c0.403,0.292,0.802,0.59,1.203,0.885V4.247C23.971,4.149,22.923,4.151,21.854,4.281z"/>
</g>
</svg>
