<?xml version="1.0" encoding="utf-8"?>
<!-- Generator: Adobe Illustrator 16.0.0, SVG Export Plug-In . SVG Version: 6.00 Build 0)  -->
<!DOCTYPE svg PUBLIC "-//W3C//DTD SVG 1.1//EN" "http://www.w3.org/Graphics/SVG/1.1/DTD/svg11.dtd">
<svg version="1.1" id="Layer_1" xmlns="http://www.w3.org/2000/svg" xmlns:xlink="http://www.w3.org/1999/xlink" x="0px" y="0px"
	 width="141px" height="141px" viewBox="0 0 141 141" enable-background="new 0 0 141 141" xml:space="preserve">
<g>
	<path fill="#ACDD5E" d="M71.475,44.752c-14.529,0-26.347,11.819-26.347,26.346c0,14.528,11.818,26.346,26.347,26.346
		c14.526,0,26.346-11.815,26.346-26.346C97.82,56.571,86.001,44.752,71.475,44.752z M71.757,84.15
		c-7.266,0-13.156-5.893-13.156-13.156c0-7.266,5.89-13.156,13.156-13.156c7.267,0,13.156,5.89,13.156,13.156
		C84.913,78.26,79.021,84.15,71.757,84.15z"/>
	<path fill="#ACDD5E" d="M71.221,20.519c-0.13,0-0.258,0.009-0.388,0.01v-0.01H20.387v50.447h0.01
		c-0.001,0.13-0.01,0.257-0.01,0.386c0,28.075,22.759,50.834,50.833,50.834c28.072,0,50.83-22.76,50.83-50.834
		C122.053,43.278,99.294,20.519,71.221,20.519z M71.475,106.036c-19.266,0-34.938-15.673-34.938-34.938
		c0-19.265,15.673-34.938,34.938-34.938c19.264,0,34.938,15.673,34.938,34.938C106.412,90.363,90.738,106.036,71.475,106.036z"/>
</g>
<path fill="#8CC640" d="M97.82,71.098c0-14.528-11.819-26.347-26.346-26.347c-0.086,0-0.17,0.006-0.257,0.006v13.107
	c0.181-0.007,0.357-0.027,0.537-0.027c7.269,0,13.156,5.89,13.156,13.156c0,7.267-5.892,13.157-13.156,13.157
	c-0.18,0-0.356-0.021-0.537-0.027v13.313c0.087,0.002,0.171,0.008,0.257,0.008C86.001,97.443,97.82,85.625,97.82,71.098z"/>
<path fill="#8CC640" d="M122.055,71.352c0-28.075-22.761-50.833-50.832-50.833c0,0,0,0-0.002,0v15.647
	c0.086,0,0.17-0.006,0.256-0.006c19.265,0,34.938,15.673,34.938,34.938c0,19.268-15.674,34.938-34.938,34.938
	c-0.086,0-0.17-0.007-0.256-0.007v16.156c0.002,0,0.002,0,0.002,0C99.296,122.186,122.055,99.426,122.055,71.352z"/>
</svg>
