<?xml version="1.0" encoding="utf-8"?>
<!-- Generator: Adobe Illustrator 16.0.0, SVG Export Plug-In . SVG Version: 6.00 Build 0)  -->
<!DOCTYPE svg PUBLIC "-//W3C//DTD SVG 1.1//EN" "http://www.w3.org/Graphics/SVG/1.1/DTD/svg11.dtd">
<svg version="1.1" id="Layer_1" xmlns="http://www.w3.org/2000/svg" xmlns:xlink="http://www.w3.org/1999/xlink" x="0px" y="0px"
	 width="141px" height="141px" viewBox="0 0 141 141" enable-background="new 0 0 141 141" xml:space="preserve">
<g>
	<path fill="#ACDD5E" d="M9.84,23.389c-0.154,0-0.302,0.024-0.451,0.045l56.805,56.175c0.496,0.357,2.141,1.416,4.427,1.597V23.389
		H9.84z"/>
	<polygon fill="#ACDD5E" points="6.561,28.324 6.561,115.893 50.185,71.465 	"/>
	<path fill="#ACDD5E" d="M62.711,83.83l-0.229-0.202l-8.411-8.319L10.689,119.49H70.62V86.68
		C67.252,86.511,64.406,85.168,62.711,83.83z"/>
	<path fill="#8CC640" d="M79.648,76.709l0.146-0.152l53.291-52.867c-0.415-0.188-0.872-0.301-1.356-0.301H70.621v57.817
		C73.096,81.398,76.316,80.568,79.648,76.709z"/>
	<path fill="#8CC640" d="M135.004,116.234c0-0.01,0.003-0.019,0.003-0.026V29.483L92.652,71.496L135.004,116.234z"/>
	<path fill="#8CC640" d="M88.771,75.348l-5.059,5.019c-4.166,4.782-8.576,6.35-12.396,6.35c-0.236,0-0.464-0.021-0.697-0.032v32.809
		h59.938L88.771,75.348z"/>
</g>
</svg>
