<?xml version="1.0" encoding="utf-8"?>
<!-- Generator: Adobe Illustrator 16.0.0, SVG Export Plug-In . SVG Version: 6.00 Build 0)  -->
<!DOCTYPE svg PUBLIC "-//W3C//DTD SVG 1.1//EN" "http://www.w3.org/Graphics/SVG/1.1/DTD/svg11.dtd">
<svg version="1.1" id="Layer_1" xmlns="http://www.w3.org/2000/svg" xmlns:xlink="http://www.w3.org/1999/xlink" x="0px" y="0px"
	 width="141px" height="141px" viewBox="0 0 141 141" enable-background="new 0 0 141 141" xml:space="preserve">
<path fill="#8CC640" d="M41.914,64.925l9.008,5.821l-9.008,5.766V64.925z M69.413,82.693v15.063L44.012,81.104l11.526-7.375
	L69.413,82.693z M69.413,58.912l-13.862,8.872l-11.556-7.467l25.418-16.685V58.912z"/>
<path fill="#ACDD5E" d="M71.277,104.793c-0.051-0.014-0.102-0.029-0.149-0.047c-0.193-0.064-0.377-0.146-0.546-0.253
	c-0.012-0.009-0.026-0.011-0.038-0.019l-0.026-0.019l-0.001-0.001L38.043,83.17c-0.056-0.037-0.099-0.087-0.151-0.128
	c-0.083-0.063-0.164-0.128-0.239-0.203c-0.082-0.081-0.15-0.17-0.219-0.262c-0.04-0.052-0.09-0.093-0.126-0.15
	c-0.02-0.03-0.03-0.063-0.047-0.094c-0.035-0.06-0.063-0.12-0.092-0.181c-0.056-0.117-0.102-0.234-0.138-0.355
	c-0.018-0.059-0.036-0.117-0.049-0.178c-0.033-0.15-0.051-0.299-0.056-0.451c-0.001-0.029-0.011-0.059-0.011-0.089V60.333
	c0-0.028,0.009-0.054,0.01-0.083c0.005-0.154,0.023-0.308,0.058-0.46c0.014-0.061,0.032-0.118,0.05-0.177
	c0.036-0.121,0.083-0.238,0.138-0.354c0.03-0.062,0.059-0.123,0.093-0.182c0.019-0.033,0.03-0.068,0.051-0.1
	c0.053-0.083,0.119-0.151,0.18-0.225c0.035-0.043,0.065-0.089,0.104-0.13c0.132-0.141,0.277-0.265,0.434-0.369
	c0.004-0.002,0.007-0.007,0.011-0.009l32.473-21.316c0,0,0.001-0.001,0.002-0.001l0.024-0.016c0.011-0.007,0.024-0.01,0.036-0.017
	c0.168-0.107,0.353-0.189,0.545-0.254c0.05-0.017,0.099-0.033,0.149-0.046c0.121-0.033,0.252-0.041,0.379-0.056V18.704
	c-0.146-0.001-0.286-0.011-0.432-0.011c-28.813,0-52.169,23.356-52.169,52.167s23.356,52.167,52.169,52.167
	c0.146,0,0.286-0.01,0.432-0.012v-18.168C71.527,104.831,71.398,104.825,71.277,104.793z"/>
<polygon fill="#ACDD5E" points="55.551,67.784 69.413,58.912 69.413,43.632 43.995,60.317 "/>
<polygon fill="#ACDD5E" points="44.012,81.104 69.413,97.758 69.413,82.693 55.538,73.729 "/>
<polygon fill="#ACDD5E" points="41.914,64.925 41.914,76.512 50.922,70.746 "/>
<polygon fill="#ACDD5E" points="60.166,70.767 71.652,78.188 71.652,63.414 "/>
<path fill="#8CC640" d="M123.387,70.86c0-28.666-23.125-51.922-51.732-52.156v17.834c0.078-0.01,0.152-0.034,0.232-0.035
	c0.008,0,0.014-0.002,0.021-0.002c0.002,0,0.005-0.001,0.007-0.001c0.218,0,0.425,0.037,0.627,0.089
	c0.05,0.013,0.099,0.029,0.146,0.045c0.187,0.061,0.36,0.138,0.524,0.238c0.019,0.011,0.038,0.014,0.056,0.025l31.824,20.494
	c0.162,0.103,0.309,0.23,0.446,0.372c0.044,0.045,0.081,0.095,0.121,0.143c0.05,0.061,0.106,0.114,0.151,0.18
	c0.027,0.042,0.047,0.088,0.07,0.132c0.036,0.059,0.068,0.118,0.102,0.18c0.06,0.122,0.105,0.246,0.146,0.373
	c0.017,0.053,0.036,0.103,0.05,0.157c0.043,0.187,0.07,0.376,0.07,0.566c0,0.002,0.001,0.004,0.001,0.007V81.08h-0.002
	c0,0.023-0.009,0.046-0.009,0.07c-0.004,0.158-0.023,0.313-0.059,0.473c-0.017,0.061-0.033,0.118-0.053,0.176
	c-0.036,0.119-0.081,0.235-0.135,0.35c-0.03,0.064-0.063,0.125-0.1,0.188c-0.021,0.037-0.033,0.076-0.058,0.111
	c-0.046,0.069-0.104,0.129-0.157,0.192c-0.039,0.049-0.074,0.103-0.119,0.146c-0.131,0.14-0.271,0.268-0.426,0.369l-31.824,21.301
	c-0.002,0.001-0.002,0.001-0.004,0.002l-0.004,0.003c-0.004,0.002-0.007,0.002-0.01,0.004c-0.18,0.12-0.379,0.207-0.587,0.277
	c-0.05,0.019-0.099,0.03-0.147,0.046c-0.207,0.057-0.422,0.095-0.646,0.095c-0.091,0-0.175-0.024-0.261-0.036v18.17
	C100.264,122.783,123.387,99.525,123.387,70.86z"/>
<polygon fill="#8CC640" points="99.23,59.565 74.413,43.583 74.413,58.928 87.6,67.543 "/>
<polygon fill="#8CC640" points="101.247,76.46 101.247,64.246 92.127,70.501 "/>
<polygon fill="#8CC640" points="83.141,70.602 71.898,63.257 71.652,63.414 71.652,78.188 71.872,78.33 "/>
<polygon fill="#8CC640" points="74.413,82.65 74.413,97.705 99.215,81.104 87.667,73.561 "/>
</svg>
