<?xml version="1.0" encoding="utf-8"?>
<!-- Generator: Adobe Illustrator 19.2.1, SVG Export Plug-In . SVG Version: 6.00 Build 0)  -->
<svg version="1.1" id="Layer_1" xmlns="http://www.w3.org/2000/svg" xmlns:xlink="http://www.w3.org/1999/xlink" x="0px" y="0px"
	 viewBox="0 0 200 200" style="enable-background:new 0 0 200 200;" xml:space="preserve">
<style type="text/css">
	.st0{fill:#EF4242;}
</style>
<path d="M141.8,17.8l-125,125l39,39l125-125L141.8,17.8z M26.7,142.8L141.8,27.7l29.1,29.1l-10.2,10.2l-13.2-13.2l-4.9,4.9L155.8,72
	l-9.9,9.9l-13.2-13.2l-4.9,5l13.2,13.2l-55.6,55.6l-13.2-13.2l-5,4.9l13.2,13.2l-9.9,9.9l-13.2-13.2l-5,4.9l13.2,13.2l-9.7,9.7
	L26.7,142.8z"/>
<path d="M164.8,139.5l1.3,1.3c7.2,7.2,7.2,18.9,0,26.2c-3.5,3.5-8.1,5.4-13.1,5.4c-4.9,0-9.6-1.9-13.1-5.4l-1.3-1.3L164.8,139.5
	 M164.8,129.6l-36.1,36.1l6.3,6.3c5,5,11.5,7.5,18,7.5s13.1-2.5,18-7.5c10-10,10-26.1,0-36.1L164.8,129.6L164.8,129.6z"/>
<polygon class="st0" points="75.9,40.6 77,58.5 60.9,62.1 58.8,76.4 40.1,76.4 128.8,165.5 164.6,129.7 "/>
<path d="M75.9,40.6L24,24.7l16.1,51.7h18.7l2.1-14.3L77,58.5L75.9,40.6z M61.8,54.8l-2.4,0.5l-4.7,1L54,61.1l-0.3,1.7l-1,6.7h-5.7
	h-1.8L34.6,35.3l34.6,10.6l0.1,1.3l0.4,5.8L61.8,54.8z"/>
<polygon class="st0" points="34.6,35.4 49.7,40 39.5,50.2 "/>
</svg>
