<?xml version="1.0" encoding="utf-8"?>
<!-- Generator: Adobe Illustrator 19.2.1, SVG Export Plug-In . SVG Version: 6.00 Build 0)  -->
<svg version="1.1" id="Layer_1" xmlns="http://www.w3.org/2000/svg" xmlns:xlink="http://www.w3.org/1999/xlink" x="0px" y="0px"
	 viewBox="0 0 150 150" style="enable-background:new 0 0 150 150;" xml:space="preserve">
<style type="text/css">
	.st0{fill:#FAAF40;}
	.st1{fill:#FFFFFF;}
	.st2{fill:#232323;}
</style>
<rect class="st0" width="150.3" height="150.3"/>
<rect x="37.6" y="50.1" class="st1" width="75.2" height="50.1"/>
<g>
	<path class="st2" d="M75.2,84L37.6,52.7v-4.5h75.2v4.3L75.2,84z M43,52.1l32.2,26.8l32.2-26.8C107.4,52.1,43,52.1,43,52.1z"/>
	
		<rect x="37.6" y="83.6" transform="matrix(0.7848 -0.6198 0.6198 0.7848 -41.3088 52.1402)" class="st2" width="33.7" height="3.9"/>
	
		<rect x="94" y="68.8" transform="matrix(0.6196 -0.7849 0.7849 0.6196 -30.7582 107.8633)" class="st2" width="3.9" height="33.7"/>
</g>
<g>
	<rect x="10.2" y="85.7" class="st2" width="21.1" height="3.9"/>
	<rect x="13.3" y="73.2" class="st2" width="18" height="3.9"/>
	<rect x="18.8" y="60.7" class="st2" width="12.5" height="3.9"/>
</g>
</svg>
