<?xml version="1.0" encoding="utf-8"?>
<!-- Generator: Adobe Illustrator 19.2.1, SVG Export Plug-In . SVG Version: 6.00 Build 0)  -->
<svg version="1.1" id="Layer_1" xmlns="http://www.w3.org/2000/svg" xmlns:xlink="http://www.w3.org/1999/xlink" x="0px" y="0px"
	 viewBox="0 0 150 150" style="enable-background:new 0 0 150 150;" xml:space="preserve">
<style type="text/css">
	.st0{fill:#B06AAB;}
	.st1{fill:#232323;}
	.st2{fill:#FFFFFF;}
</style>
<rect y="0.1" class="st0" width="149.9" height="149.9"/>
<path class="st1" d="M74.9,118.2c-23.4,0-42.4-19-42.4-42.4s19-42.4,42.4-42.4s42.4,19,42.4,42.4S98.3,118.2,74.9,118.2z M74.9,37.4
	c-21.2,0-38.5,17.3-38.5,38.5s17.3,38.5,38.5,38.5s38.5-17.3,38.5-38.5S96.1,37.4,74.9,37.4z"/>
<path class="st2" d="M102.1,84c0-0.1,0.1-0.1,0.1-0.2c0.1-0.1,0.1-0.2,0.1-0.3c0,0,0-0.1,0-0.1c0-0.2,0.1-0.3,0.1-0.5c0,0,0,0,0,0
	V67c0,0,0,0,0,0c0-0.2,0-0.4-0.1-0.5c0,0,0-0.1,0-0.1c0-0.1-0.1-0.3-0.2-0.4c0-0.1-0.1-0.1-0.1-0.2c0-0.1-0.1-0.1-0.1-0.2
	c0,0-0.1-0.1-0.1-0.1c0,0-0.1-0.1-0.1-0.1c-0.1-0.1-0.2-0.2-0.3-0.3c0,0,0,0-0.1-0.1L76.8,49.1c-0.1-0.1-0.2-0.1-0.3-0.2
	c0,0-0.1,0-0.1,0c-0.1,0-0.2-0.1-0.3-0.1c0,0-0.1,0-0.1,0c-0.1,0-0.3,0-0.4,0c0,0,0,0,0,0c0,0,0,0,0,0c-0.1,0-0.3,0-0.4,0
	c0,0-0.1,0-0.1,0c-0.1,0-0.2,0.1-0.3,0.1c0,0-0.1,0-0.1,0c-0.1,0.1-0.2,0.1-0.3,0.2l0,0c0,0,0,0,0,0L48.7,65.8
	c-0.1,0.1-0.3,0.2-0.4,0.3c0,0-0.1,0.1-0.1,0.1c-0.1,0.1-0.1,0.1-0.2,0.2c0,0,0,0.1-0.1,0.1c0,0.1-0.1,0.1-0.1,0.2
	c-0.1,0.1-0.1,0.2-0.1,0.3c0,0.1,0,0.1,0,0.2c0,0.2-0.1,0.3-0.1,0.5c0,0,0,0,0,0v0c0,0,0,0,0,0v15c0,0,0,0,0,0v0c0,0,0,0,0,0
	c0,0.2,0,0.3,0.1,0.5c0,0.1,0,0.1,0,0.2c0,0.1,0.1,0.2,0.1,0.3c0,0.1,0.1,0.1,0.1,0.2c0,0,0,0.1,0.1,0.1c0,0,0.1,0.1,0.1,0.1
	c0.1,0.1,0.1,0.2,0.2,0.2c0.1,0.1,0.1,0.1,0.2,0.2c0,0,0.1,0.1,0.1,0.1l25.6,17.1c0,0,0,0,0,0l0,0c0.1,0.1,0.2,0.1,0.4,0.2
	c0,0,0.1,0,0.1,0c0.1,0,0.2,0.1,0.3,0.1c0,0,0.1,0,0.1,0c0.1,0,0.3,0,0.4,0c0.1,0,0.3,0,0.4,0c0,0,0.1,0,0.1,0
	c0.1,0,0.2-0.1,0.3-0.1c0,0,0.1,0,0.1-0.1c0.1,0,0.2-0.1,0.3-0.2c0,0,0.1,0,0.1-0.1c0,0,0,0,0,0l24.5-17.1c0,0,0.1,0,0.1-0.1
	c0.1-0.1,0.2-0.2,0.3-0.3c0,0,0.1-0.1,0.1-0.1c0,0,0.1-0.1,0.1-0.1C102,84.1,102.1,84.1,102.1,84z M52.3,72.2l4.7,3.2l-4.7,3.1V72.2
	z M75.5,82.1l-10-6.7l10-6.6l9.3,6.4L75.5,82.1z M77.9,64.7v-9.3L96,67.1l-7.1,5.2L77.9,64.7z M73.2,64.7l-11.9,7.9l-7.1-4.7
	l19-12.4V64.7z M61.3,78.2l11.9,8v9.4l-19-12.7L61.3,78.2z M77.9,86.1L88.9,78l7,4.8L77.9,95.5V86.1z M93,75.1l4.8-3.5v6.8L93,75.1z
	"/>
</svg>
