<?xml version="1.0" encoding="utf-8"?>
<!-- Generator: Adobe Illustrator 19.2.1, SVG Export Plug-In . SVG Version: 6.00 Build 0)  -->
<svg version="1.1" id="Layer_1" xmlns="http://www.w3.org/2000/svg" xmlns:xlink="http://www.w3.org/1999/xlink" x="0px" y="0px"
	 viewBox="0 0 200 200" style="enable-background:new 0 0 200 200;" xml:space="preserve">
<style type="text/css">
	.st0{fill:#ADD261;}
</style>
<rect x="30.3" y="46.1" class="st0" width="139.6" height="80.1"/>
<circle class="st0" cx="99.6" cy="133.9" r="4.2"/>
<path d="M186.5,149.4V31H15v118.4h65.2v19.7H57.7v7.7h84.4v-7.7h-21.4v-19.7H186.5z M22.7,38.7h156.1v103H22.7V38.7z M113,169.1
	H87.8v-19.7H113V169.1z"/>
<polygon points="72,60.2 47.3,84.9 71.5,109.1 76.9,103.7 58.1,84.9 77.4,65.6 "/>
<polygon points="119.8,65.6 138.5,84.4 119.3,103.7 124.7,109.1 149.4,84.4 125.2,60.2 "/>
<rect x="64.1" y="80.8" transform="matrix(0.3577 -0.9338 0.9338 0.3577 -15.5846 146.6606)" width="69.4" height="7.7"/>
</svg>
