<?xml version="1.0" encoding="utf-8"?>
<!-- Generator: Adobe Illustrator 19.2.1, SVG Export Plug-In . SVG Version: 6.00 Build 0)  -->
<svg version="1.1" id="Layer_1" xmlns="http://www.w3.org/2000/svg" xmlns:xlink="http://www.w3.org/1999/xlink" x="0px" y="0px"
	 viewBox="0 0 200 200" style="enable-background:new 0 0 200 200;" xml:space="preserve">
<style type="text/css">
	.st0{fill:#46A9DF;}
</style>
<path d="M117,41.7h11.2v-7H111H88.9H71.8v7h11.2L56.3,72.8l43.7,70.1l43.7-70.1L117,41.7z M92.2,41.7h15.7L135,73.4L103.5,124V83.5
	c2.3-1.2,3.9-3.7,3.9-6.5c0-4.1-3.3-7.4-7.4-7.4c-4.1,0-7.4,3.3-7.4,7.4c0,2.8,1.6,5.2,3.9,6.5V124L64.9,73.4L92.2,41.7z"/>
<path class="st0" d="M189.2,67.8h-20.3v20.3h5.7c-4.1,33.9-30.7,60.9-64.4,65.5v-5.6H89.8v5.6c-33-4.5-59.2-30.4-64.1-63.2h5.4V70.1
	H10.8v20.3h7.1c5.1,37.1,34.7,66.5,72,71v6.9h20.3v-6.9c38-4.7,68.1-35.1,72.3-73.3h6.8V67.8z"/>
</svg>
