<?xml version="1.0" encoding="utf-8"?>
<!-- Generator: Adobe Illustrator 19.2.1, SVG Export Plug-In . SVG Version: 6.00 Build 0)  -->
<svg version="1.1" id="Layer_1" xmlns="http://www.w3.org/2000/svg" xmlns:xlink="http://www.w3.org/1999/xlink" x="0px" y="0px"
	 viewBox="0 0 150 150" style="enable-background:new 0 0 150 150;" xml:space="preserve">
<style type="text/css">
	.st0{fill:#EF4242;}
	.st1{fill:#FFFFFF;}
	.st2{fill:#232323;}
</style>
<rect class="st0" width="150" height="150"/>
<g>
	<path class="st1" d="M42.6,41.9c0.9,0,1.7,0,2.4,0c9.6,0,19.2-0.1,28.8,0c7.4,0.1,14.3,1.9,20.2,6.5c7.1,5.5,11.5,12.6,12.7,21.7
		c1.1,8-0.6,15.3-5,22c-5.3,8-12.8,12.9-22.3,14.2c-10.8,1.5-20.2-1.7-27.9-9.5c-5.9-6-9-13.4-9-21.9c0-10.2,0-20.3,0-30.5
		C42.5,43.7,42.6,43,42.6,41.9z M75,52.2c-11.1-0.5-22.1,9.2-22.1,21.9C53,87.9,64.7,96.3,75.1,96.2c11.6-0.1,21.9-9.7,22-22.1
		C97.1,61.9,86.4,51.7,75,52.2z"/>
	<path class="st1" d="M74.9,57.9c8.5-0.4,16.5,6.8,16.6,16.4c0,9.1-7.5,16.5-16.6,16.5c-9.2,0-16.4-7.4-16.4-16.6
		C58.4,64.6,66.9,57.4,74.9,57.9z M82.9,74.2c0-4.5-3.5-8.1-7.9-8.1c-4.2,0-8.2,3.7-8.1,8c0.1,5.2,4.3,8.1,7.9,8.2
		C79.8,82.3,83.3,78.1,82.9,74.2z"/>
</g>
<g>
	<path class="st2" d="M74.5,116.3c-11.1,0-20.9-4.2-29-12.5c-7.6-7.8-11.5-17.2-11.5-28c0-9.9,0-19.9,0-29.6l0-7.4
		c0-0.7,0-1.3,0.1-2c0-0.3,0-0.7,0.1-1.1l0.1-1.9h4.8c3.5,0,7,0,10.5,0c8,0,16.3,0,24.5,0c10.2,0.1,18.6,2.8,25.7,8.3
		c9.2,7.1,14.7,16.4,16.2,27.6c1.4,10.2-0.8,19.6-6.4,28c-6.9,10.4-16.5,16.5-28.4,18.1C78.7,116.1,76.6,116.3,74.5,116.3z
		 M37.8,37.7c0,0.4,0,0.7,0,1.1l0,7.4c0,9.7,0,19.7,0,29.6c0,9.7,3.5,18.2,10.4,25.3c8.8,9,19.6,12.6,32.2,10.9
		c10.8-1.5,19.5-7,25.7-16.4c5-7.6,7-16.2,5.8-25.4c-1.4-10.3-6.2-18.5-14.7-25c-6.4-4.9-14.1-7.4-23.4-7.5c-8.1-0.1-16.4,0-24.4,0
		c-3.5,0-7,0-10.5,0H37.8z"/>
</g>
</svg>
