<?xml version="1.0" encoding="utf-8"?>
<!-- Generator: Adobe Illustrator 19.2.1, SVG Export Plug-In . SVG Version: 6.00 Build 0)  -->
<svg version="1.1" id="Layer_1" xmlns="http://www.w3.org/2000/svg" xmlns:xlink="http://www.w3.org/1999/xlink" x="0px" y="0px"
	 viewBox="0 0 150 150" style="enable-background:new 0 0 150 150;" xml:space="preserve">
<style type="text/css">
	.st0{fill:#EE4141;}
	.st1{fill:#FFFFFF;}
	.st2{fill:#232323;}
</style>
<rect class="st0" width="150" height="150"/>
<g>
	<path class="st1" d="M75.9,61c-8.9,0-16.1,7.2-16.1,16.1c0,8.9,7.2,16.1,16.1,16.1C84.7,93.2,92,86,92,77.1
		C92,68.2,84.7,61,75.9,61z M75.9,86.1c-4.9,0-8.9-4-8.9-8.9c0-4.9,4-8.9,8.9-8.9c4.9,0,8.9,4,8.9,8.9C84.8,82,80.8,86.1,75.9,86.1z
		"/>
	<path class="st1" d="M113.9,76.2c-0.1-0.3-1.9-7.6-7.5-15c-7.5-9.9-18-15.1-30.5-15.1c0,0,0,0,0,0c-16.6,0-26.1,8-31.1,14.6
		C39.4,68,38,75.2,37.9,75.5l-0.1,0.7l0.1,0.7c0.1,0.3,1.5,7.5,6.9,14.6c5,6.6,14.4,14.6,31,14.6c0,0,0,0,0,0
		c15.7,0,25.2-7.6,30.5-14c5.6-6.8,7.5-13.7,7.6-14l0.2-0.9L113.9,76.2z M75.8,98.9C75.8,98.9,75.8,98.9,75.8,98.9
		c-23.6,0-29.7-18.7-30.7-22.7c0.5-1.7,1.9-6.4,5.4-11.1c5.9-7.8,14.4-11.8,25.3-11.8c0,0,0,0,0,0c22.1,0,29.4,19.2,30.8,23.7
		C105.2,81.3,97.8,98.9,75.8,98.9z"/>
</g>
<path class="st2" d="M75.7,114.3C75.7,114.3,75.7,114.3,75.7,114.3c-20.7,0-32.5-10.3-38.7-18.9c-6.7-9.3-8.4-18.4-8.5-18.8
	l-0.1-0.4l0.1-0.4c0.1-0.4,1.9-9.6,8.6-18.9c6.2-8.7,18-19,38.7-19c0,0,0,0,0,0c19.7,0,31.5,10.7,38,19.6c6.9,9.6,9.3,19.1,9.4,19.5
	l0.1,0.5l-0.1,0.5c-0.1,0.4-2.5,9.2-9.5,18.1C107.2,104.4,95.3,114.3,75.7,114.3z M32.5,76.2c0.4,1.7,2.4,9.4,7.9,17
	c8.2,11.4,20.1,17.1,35.4,17.1c0,0,0,0,0,0c32.3,0,42.3-28.9,43.5-32.9c-0.6-2-3-9.9-8.7-17.7c-8.6-11.9-20.3-17.9-34.7-17.9
	c0,0,0,0,0,0c-15.3,0-27.2,5.8-35.5,17.2C34.8,66.7,32.8,74.5,32.5,76.2z"/>
</svg>
