<?xml version="1.0" encoding="utf-8"?>
<!-- Generator: Adobe Illustrator 19.2.1, SVG Export Plug-In . SVG Version: 6.00 Build 0)  -->
<svg version="1.1" id="Layer_1" xmlns="http://www.w3.org/2000/svg" xmlns:xlink="http://www.w3.org/1999/xlink" x="0px" y="0px"
	 viewBox="0 0 40 40" style="enable-background:new 0 0 40 40;" xml:space="preserve">
<style type="text/css">
	.st0{fill:#232323;}
</style>
<g>
	<path class="st0" d="M20.4,6c-8,0-14.5,5.6-14.5,12.5c0,3.8,1.9,7.1,4.9,9.4C10,29.4,7.9,32.6,5,33.7c0,0,4.9,2.6,11.8-3
		c1.2,0.3,2.4,0.4,3.6,0.4c8,0,14.5-5.6,14.5-12.5C34.9,11.6,28.4,6,20.4,6z M13.9,20.8c-1.2,0-2.2-1-2.2-2.2s1-2.2,2.2-2.2
		s2.2,1,2.2,2.2S15.1,20.8,13.9,20.8z M20.2,20.8c-1.2,0-2.2-1-2.2-2.2s1-2.2,2.2-2.2s2.2,1,2.2,2.2S21.4,20.8,20.2,20.8z
		 M26.5,20.8c-1.2,0-2.2-1-2.2-2.2s1-2.2,2.2-2.2s2.2,1,2.2,2.2S27.7,20.8,26.5,20.8z"/>
</g>
</svg>
