<?xml version="1.0" encoding="utf-8"?>
<!-- Generator: Adobe Illustrator 19.2.1, SVG Export Plug-In . SVG Version: 6.00 Build 0)  -->
<svg version="1.1" id="Layer_1" xmlns="http://www.w3.org/2000/svg" xmlns:xlink="http://www.w3.org/1999/xlink" x="0px" y="0px"
	 viewBox="0 0 40 40" style="enable-background:new 0 0 40 40;" xml:space="preserve">
<style type="text/css">
	.st0{fill:#232323;}
</style>
<path class="st0" d="M30.7,30.5c-0.9-6,0.4-11.9-0.1-17.5c-0.8-7.6-6.2-12.2-14.3-9.7C8.2,5.8,9.7,16,10,20.9
	c0.2,4.4-1.1,8.9-1.4,9.7c-1.9,1-4.2,2.6-5.5,6.5h34C35.2,31.9,32.3,31.2,30.7,30.5z M12.8,14c0,0-0.2-5.4,4.2-7
	c0.2,0,6.7,0.3,9.6,4.8c0.9,3.5-0.1,8.1-1.5,11.2c-1.5,1.4-2.8,2.1-4.4,2.1c0,0,0,0,0,0c-2.4,0-4.1-1.6-4.2-1.8
	c-1.5-1.5-2.8-4.6-2.8-4.6c-1.2-0.3-1.4-0.7-1.9-2.7S12.8,14,12.8,14z M11.6,30.2c4-1.3,4.9-3.9,5.1-5.4c0.9,0.6,2.2,1.2,3.9,1.2
	c0,0,0,0,0,0c1.4,0,2.7-0.4,4-1.3c-0.6,2.8,1.3,5.6,3,7.6c-1.5,1.2-3.9,2.4-7.2,2.4C15.4,34.7,12.6,31.6,11.6,30.2z"/>
</svg>
