<?xml version="1.0" encoding="utf-8"?>
<!-- Generator: Adobe Illustrator 19.2.1, SVG Export Plug-In . SVG Version: 6.00 Build 0)  -->
<svg version="1.1" id="Layer_1" xmlns="http://www.w3.org/2000/svg" xmlns:xlink="http://www.w3.org/1999/xlink" x="0px" y="0px"
	 viewBox="0 0 200 200" style="enable-background:new 0 0 200 200;" xml:space="preserve">
<style type="text/css">
	.st0{fill:#AF6AAA;}
</style>
<path d="M151.7,153.5c-43.4,0-44.7-40.6-44.7-41c0-2.5-1.3-4.8-3.4-6.2c-1.2-0.8-2.5-1.2-3.7-1.2c-1.8,0-3.2,0.4-4.3,1.2
	c-2.7,2-2.8,6.1-2.8,6.2c-0.4,23.5-19.6,41.1-44.7,41.1c-24.7,0-44.7-20.7-44.7-46.1v-7c0-11.4,8.1-20.6,18-20.6h37.3
	c0.5,0,3.3-0.1,7.2,0c10.5,0.3,18.1,1.6,22.7,3.9c7.5,3.8,12.5,3.7,12.6,3.7h0.1h0.2c0,0,5,0.1,12.6-3.7c5.8-2.9,15.4-3.7,22.5-3.9
	c3.8-0.1,6.6,0,7.1,0h35.2c9.7,0,17.6,9,17.6,20.2v7.5C196.5,132.8,176.4,153.5,151.7,153.5z M100,98.1c2.7,0,5.3,0.9,7.6,2.5
	c4,2.7,6.3,7.2,6.3,11.8c0,1.3,1.3,34.2,37.8,34.2c20.8,0,37.8-17.6,37.8-39.2V100c0-6.4-4.1-13.2-10.6-13.2h-35.4
	c0,0-2.8-0.1-6.7,0c-9,0.2-16,1.4-19.6,3.2c-8.6,4.3-14.6,4.4-15.8,4.4c-1.2,0-7.2-0.1-15.8-4.4c-3.6-1.9-10.7-3-19.8-3.3
	c-3.9-0.1-6.8,0-6.8,0h-0.1H21.5c-6.8,0-11.1,7.1-11.1,13.7v7c0,21.6,17,39.2,37.8,39.2c18.5,0,37.4-11.8,37.8-34.2
	c0-0.2,0-7.6,5.6-11.7C93.9,98.9,96.7,98.1,100,98.1z"/>
<g>
	<path class="st0" d="M45.1,90.1c-2.3,0-5.4,0-9.2,0c-1.9,0-4,0.1-6.2,0.2c-2.3,0.2-4.7,0.4-7.5,1.3c-1.4,0.5-3,1.3-4.4,2.7
		c-1.4,1.3-2.4,3.2-2.9,5s-0.7,3.4-0.7,5s0.1,3,0.2,4.4c0.2,1.4,0.4,2.8,0.7,4.2c0.2,1.3,0.6,2.7,1,4.1c0.8,2.7,1.8,5.3,3.1,7.6
		c2.5,4.7,5.8,8.4,9,11s6.1,4.2,8.3,5c1.1,0.5,1.9,0.7,2.5,0.9s0.9,0.2,0.9,0.2s-1-0.9-2.5-2.5s-3.7-4-5.8-7
		c-0.5-0.7-0.9-1.3-1.4-2.1c-2-3.2-16.5-28.2,6.4-35c3.7-1.1,6.8-2.3,8.8-3.2c2.1-1,3.2-1.6,3.2-1.6s-0.3,0-0.9,0
		C47.1,90.2,46.2,90.2,45.1,90.1z"/>
	<path class="st0" d="M136.1,91c-1.5,0.1-3.1,0.3-4.9,0.5c-1.8,0.3-3.6,0.6-5.7,1.4c-1,0.4-2.1,0.9-3.3,1.7c-1.1,0.8-2.2,1.9-3,3.3
		s-1.3,2.9-1.5,4.3s-0.3,2.6-0.2,3.8c0.1,2.4,0.4,4.5,0.8,6.6c0.3,2,0.9,4.1,1.5,6c0.6,2,1.4,3.8,2.2,5.5c0.9,1.7,1.8,3.2,2.8,4.6
		c0.3,0.3,0.5,0.6,0.8,1c0.3,0.3,0.5,0.6,0.8,0.9c0.5,0.6,1.1,1,1.6,1.5c1,0.9,2,1.5,2.9,2c0.8,0.4,1.6,0.7,2.1,0.8s0.8,0.1,0.8,0.1
		s-0.7-0.8-1.5-2.4c-0.8-1.5-1.8-3.8-2.6-6.5c-0.4-1.4-0.8-2.8-1.2-4.4c-0.2-0.8-0.3-1.6-0.5-2.4c-0.1-0.7-0.3-1.4-0.4-2.1
		c-0.7-5.6-0.6-15.2,7.3-20.6c0.9-0.4,1.7-0.7,2.5-1.1c2.8-1.2,5-2.3,6.6-3.2c1.6-0.9,2.5-1.4,2.5-1.4s-1-0.1-2.8-0.1
		C141.6,90.7,139.1,90.8,136.1,91z"/>
	<path class="st0" d="M156.4,58c-4.1-3.2-8.2-6.5-12-9.5c-0.5-0.4-1-0.8-1.4-1.1l-0.4-0.3l-0.1-0.1l0,0c0,0-0.1-0.1,0.1,0.1l0,0
		l-0.2-0.1l-0.1-0.1c-0.3-0.3-0.6-0.5-0.9-0.7c-1.2-0.8-2.5-1.5-3.7-2c-2.5-1-5.2-1.4-7.6-1.2c-2.4,0.2-4.6,1-6.2,1.9
		c-1.7,0.9-2.9,1.9-3.9,2.8c-0.5,0.4-0.9,0.8-1.2,1.2c-0.4,0.4-0.6,0.7-0.8,0.9c-0.4,0.5-0.7,0.8-0.7,0.8c-0.9,1.1-0.8,2.7,0.2,3.6
		c0.9,0.9,2.4,0.8,3.3,0l0.1-0.1c0,0,0.2-0.2,0.6-0.6c0.2-0.2,0.5-0.4,0.8-0.7s0.7-0.5,1.1-0.8c0.8-0.6,1.8-1.2,3-1.6
		c1.2-0.4,2.5-0.7,4-0.7c1.4,0.1,3,0.5,4.5,1.4c0.7,0.4,1.5,0.9,2.2,1.5c0.2,0.1,0.3,0.3,0.4,0.4l0,0l0,0l0.2,0.2l0.3,0.3
		c0.4,0.4,0.9,0.9,1.3,1.3c3.5,3.5,7.2,7.2,10.9,10.9c4.8,4.8,9.6,9.7,13.9,14h15c2.8,0,5.5,0.8,7.9,2.1
		C181.4,77.7,168.9,67.9,156.4,58z"/>
	<path class="st0" d="M82.2,49.6c-0.2-0.3-0.5-0.6-0.8-0.9c-0.3-0.4-0.7-0.8-1.2-1.2c-1-0.9-2.2-1.9-3.9-2.8
		c-1.7-0.9-3.8-1.7-6.2-1.9C67.7,42.6,65,43,62.5,44c-1.3,0.5-2.5,1.2-3.7,2c-0.3,0.2-0.6,0.4-0.9,0.7l-0.1,0.1L57.4,47l0,0
		c0.2-0.2,0,0,0.1-0.1l0,0L57.4,47L57,47.3c-0.5,0.4-0.9,0.7-1.4,1.1c-3.8,3-7.9,6.3-12,9.5c-12.5,9.9-25,19.8-30.2,23.9
		c2.4-1.4,5.1-2.2,8-2.2h14.8c4.3-4.3,9.1-9.2,13.9-14c3.7-3.7,7.4-7.4,10.9-10.9c0.4-0.4,0.9-0.9,1.3-1.3l0.3-0.3l0.2-0.2l0,0l0,0
		c0.1-0.1,0.3-0.3,0.4-0.4c0.7-0.6,1.4-1.1,2.2-1.5c1.5-0.8,3-1.3,4.5-1.4c1.4-0.1,2.8,0.2,4,0.7c1.2,0.4,2.2,1.1,3,1.6
		c0.4,0.3,0.8,0.6,1.1,0.8c0.3,0.2,0.6,0.5,0.8,0.7c0.4,0.4,0.6,0.6,0.6,0.6l0.1,0.1c0.9,0.8,2.3,0.9,3.3,0s1.1-2.5,0.2-3.6
		C82.9,50.4,82.7,50.1,82.2,49.6z"/>
</g>
</svg>
