<?xml version="1.0" encoding="utf-8"?>
<!-- Generator: Adobe Illustrator 19.2.1, SVG Export Plug-In . SVG Version: 6.00 Build 0)  -->
<svg version="1.1" id="Layer_1" xmlns="http://www.w3.org/2000/svg" xmlns:xlink="http://www.w3.org/1999/xlink" x="0px" y="0px"
	 viewBox="0 0 864 674.9" style="enable-background:new 0 0 864 674.9;" xml:space="preserve">
<style type="text/css">
	.st0{fill:none;stroke:#000000;stroke-width:2;stroke-miterlimit:10;stroke-dasharray:2,3;}
	.st1{fill:#FFFFFF;}
	.st2{fill:#F9ED32;}
	.st3{fill:#27AAE1;}
	.st4{fill:none;stroke:#000000;stroke-width:2;stroke-miterlimit:10;}
</style>
<g>
	<path class="st0" d="M144.1,582.9v-76.1c0,0-0.1-20.8,23.9-20.8h29.1c0,0,12.3,0.5,12.3,12.3c0,0-3.2,22.8,23,22.8h51.1
		c0,0,13.5-2.5,13.5,12.5v26.7c0,0,0,12.4,15.1,12.4h53.7c0,0,11.1-0.1,11.1-12.4v-16.8c0,0-2.9-11.3,18.6-11.3h27.5
		c0,0,14.5,1.4,14.5-11.1v-42.6"/>
	<path class="st0" d="M204.5,602.7h-12c0,0-12.5,1.6-12.5-11.8c0-13.3,0-85.1,0-85.1s0-11.6,12.3-11.6h116c0,0,11-0.3,11-12v-43.6
		c0,0-2.8-14.2,10.2-14.2H373"/>
	<path class="st0" d="M259.8,463.2H283c15.8,0,14-13.6,14-13.6v-32.5v-39.8c0,0,0.1-13.9,11.3-13.9h14.8"/>
	<line class="st0" x1="297.1" y1="442.1" x2="326" y2="442.1"/>
	<line class="st0" x1="269.5" y1="521.1" x2="269.5" y2="534.1"/>
	<path class="st0" d="M225.4,546.7c0,0,16-2.2,16,9.1v12.5c0,0-0.7,11.1,14,11.1h35.4c0,0,14.8-1.4,14.8,14.3"/>
	<path class="st0" d="M305.7,608c0,0,13.7,2.9,13.7-6.5v-41.1"/>
	<line class="st0" x1="354.6" y1="409.1" x2="354.6" y2="475.6"/>
	<line class="st0" x1="305.7" y1="513" x2="333.7" y2="513"/>
	<path class="st0" d="M343.9,603.1h18.2c0,0,10.9,1.7,10.9-11.2c0,0-1-11.1,10-11.1h8"/>
	<line class="st0" x1="391" y1="580.8" x2="391" y2="612"/>
	<line class="st0" x1="408.7" y1="521.1" x2="408.7" y2="551.2"/>
	<path class="st0" d="M351.5,393.8h-9.6c0,0-8.3,0.3-8.3,9.6v21.1"/>
	<line class="st0" x1="418.3" y1="351.8" x2="456" y2="351.8"/>
	<path class="st0" d="M423.1,341.6v-16.5c0,0,1.5-8.5-11.5-8.5H377c0,0-9.5-1.5-9.5,7.5l0,31.9h17.7c0,0,8.9-0.9,8.9,7.4v33.7"/>
	<path class="st0" d="M394,373.6h-8.9c0,0-8.2,0.8-8.2,8.7c0,0,1,8.7-8.7,8.7h-13.6"/>
	<path class="st0" d="M473.3,424.5h13.6c0,0,9.6,0,9.6,9.6c0,0-2.6,19.5,11,19.5"/>
	<line class="st0" x1="496.5" y1="434.1" x2="532.2" y2="434.1"/>
	<path class="st0" d="M548.6,404.1v-38.4c0-13.2-16.4-14-16.4-14h-41.8v19.7c0,0-2.1,8.9,11.3,8.9h8.3"/>
	<line class="st0" x1="521" y1="370.1" x2="548.6" y2="370.1"/>
	<path class="st0" d="M501.7,413.3h7.7c0,0,7.8-1.7,7.8,7v13.8"/>
	<line class="st0" x1="493.7" y1="397.1" x2="459.1" y2="397.1"/>
	<path class="st0" d="M408.7,539.7h28.4c0,0,11.4-1.3,11.4,9.8c0,0-1.2,9.3,9.2,9.3"/>
	<line class="st0" x1="523" y1="520.4" x2="523" y2="466.9"/>
	<path class="st0" d="M523,487.8h-5.9c0,0-6.9-1.8-6.9,7.3v64.2c0,0,0.6,7.8-7.8,7.8h-11.9"/>
	<path class="st0" d="M502.4,567v15c0,0-0.5,6.2,7,6.2h14"/>
	<line class="st0" x1="476.4" y1="582" x2="476.4" y2="602.6"/>
	<line class="st0" x1="490.6" y1="613.4" x2="517.1" y2="613.4"/>
	<path class="st0" d="M569.3,585.1v-9c0,0,0-10.4-14.1-10.4H523"/>
	<path class="st0" d="M544,565.7v-38.7c0,0-0.5-7.7,11.2-7.7"/>
	<line class="st0" x1="541.2" y1="470.5" x2="569.3" y2="470.5"/>
	<path class="st0" d="M569.3,423.6h23.2c0,0,13.3-1.5,13.3,9.8v14.3"/>
	<line class="st0" x1="585.9" y1="605.2" x2="611.7" y2="605.2"/>
	<line class="st0" x1="598.8" y1="605.2" x2="598.8" y2="565.7"/>
	<path class="st0" d="M654,541.2v25.9c0,0-1.9,10.8,10.5,10.8h18v22.4"/>
	<path class="st0" d="M699.9,563.2h22.6c0,0,8.1-0.6,8.1,8.1v37"/>
	<path class="st0" d="M717.5,563.2v-27.1c0,0,1.5-9.1-11.3-9.1h-44.5"/>
	<line class="st0" x1="594.5" y1="488.1" x2="594.5" y2="515.2"/>
	<line class="st0" x1="601.4" y1="527.8" x2="635.5" y2="527.8"/>
	<path class="st0" d="M621.9,527.8v26.8c0,0-2.5,11.9,11.2,11.9h20.8"/>
	<line class="st0" x1="643" y1="566.5" x2="643" y2="589.2"/>
	<path class="st0" d="M232.6,603.2H247c0,0,8.4,1.4,8.4-9.8v-14"/>
	<path class="st0" d="M480,482.3v-14.4c0,0,1.5-7.1-13-7.1"/>
	<path class="st0" d="M297.1,380.3h-44c0,0-16.9-3.1-16.9,16.8V439c0,0-1.4,17.5-19,17.5c0,0-20.4,0-20.4,14.7V486"/>
	<path class="st0" d="M312.5,363.4V275c0,0-2.4-14.7,14.7-14.7h37.3"/>
	<line class="st0" x1="395.3" y1="316.5" x2="395.3" y2="257"/>
	<path class="st0" d="M508.6,351.8v-35.2c0,0,0.4-15.7-15.7-15.7h-36.7c0,0-15.3,1-15.3-14.1v-26.5"/>
</g>
<g>
	<path d="M481.2,43.7H365c-8,0-14.4,6.4-14.4,14.4v205.2c0,8,6.4,14.4,14.4,14.4h116.2c8,0,14.4-6.4,14.4-14.4V58.1
		C495.6,50.1,489.1,43.7,481.2,43.7z M424.2,271.4c-5.9,0-10.7-4.8-10.7-10.7c0-5.9,4.8-10.7,10.7-10.7c5.9,0,10.7,4.8,10.7,10.7
		C434.9,266.6,430.1,271.4,424.2,271.4z M485.9,243.9h-126v-174h126V243.9z"/>
</g>
<path class="st1" d="M555.2,470.2c0-0.8-0.1-1.6-0.3-2.3c-1.1-4.2-5-7.3-9.6-7.3c-1.9,0-3.8,0.6-5.3,1.5c0,0,0,0,0-0.1
	c0-0.2,0-0.5,0-0.7c0-5.7-4.6-10.4-10.4-10.4c-0.4,0-0.8,0-1.2,0.1c-2.9-5.3-8.5-8.9-15-8.9c-9.5,0-17.1,7.7-17.1,17.1
	c0,0.2,0,0.3,0,0.5c0,0,0,0,0,0c-5.2,0-9.5,4.2-9.5,9.5c0,0.2,0,0.4,0,0.6c0,0.2,0,0.3,0,0.5c0,4.1,3.3,7.5,7.3,7.5h53.7
	c3,0,5.6-1.9,6.8-4.6h0.2c0.2-0.8,0.3-1.7,0.3-2.6c0-0.1,0-0.1,0-0.2C555.2,470.3,555.2,470.2,555.2,470.2z"/>
<g>
	<path class="st2" d="M334.5,548.9c-0.2,0.1-0.4,0.2-0.6,0.2c-0.2,0-0.4-0.1-0.6-0.2l-4.6-3.1l-20.4,19.7h51.5c0.1,0,0.3,0,0.4,0
		L339,545.9L334.5,548.9z"/>
	<path class="st2" d="M329.2,543.5l4.7,3.1l26.3-18c-0.1,0-0.3,0-0.4,0H308c-0.3,0-0.6,0.1-0.8,0.2L329.2,543.5
		C329.2,543.5,329.2,543.5,329.2,543.5z"/>
	<path class="st2" d="M305.7,530.5c0,0.1,0,0.3,0,0.4v32.4c0,0.5,0.2,1,0.4,1.3l20.7-20L305.7,530.5z"/>
	<path class="st2" d="M362,530.1l-21.1,14.4l21.1,19.6c0.1-0.3,0.2-0.5,0.2-0.9v-32.4C362.1,530.6,362.1,530.4,362,530.1z"/>
</g>
<g>
	<path class="st2" d="M649.5,502.2c-10.9,0-19.7,8.8-19.7,19.7c0,2.3,0.4,4.6,1.1,6.6c1.9,8.6,6.7,17.1,18.6,31.9
		c11.8-14.8,16.7-23.3,18.5-31.9c0.7-2.1,1.1-4.3,1.1-6.6C669.2,511,660.4,502.2,649.5,502.2z M649.7,531.9
		c-5.9,0-10.6-4.8-10.6-10.6c0-5.9,4.8-10.6,10.6-10.6c5.9,0,10.6,4.8,10.6,10.6C660.3,527.2,655.6,531.9,649.7,531.9z"/>
</g>
<g>
	<path class="st2" d="M528.9,528.5h-11.7c-1.8,0-3.3,1.5-3.3,3.3v13c0,1.8,1.4,3.2,3.2,3.3v20c0,1.8,1.5,3.3,3.3,3.3h4.8
		c1.8,0,3.3-1.5,3.3-3.3v-20h0.4c1.8,0,3.3-1.5,3.3-3.3v-13C532.2,530,530.7,528.5,528.9,528.5z"/>
	<circle class="st2" cx="523" cy="521.1" r="5.9"/>
</g>
<g>
	<path class="st1" d="M359.3,384.3h-8.7c-2,0-3.5,1.5-3.5,3.4l-2.5,17c0,1.8,2.4,3.2,4.3,3.2l0.5,17c0,1.9,1.6,3.4,3.5,3.4l2.7,0.2
		c2,0,3.5-1.5,3.5-3.4l0.5-17h0.4c2,0,4.4-1.3,4.4-3.2l-1.8-17.2C362.8,385.8,361.3,384.3,359.3,384.3z"/>
	<ellipse class="st1" cx="354.9" cy="377.3" rx="5.3" ry="5.8"/>
</g>
<polygon class="st2" points="448.5,612 417.5,594.1 417.5,603 380.2,603 380.2,620.9 417.5,620.9 417.5,629.9 "/>
<g>
	<path class="st1" d="M621.7,447.7h-50c-1.3,0-2.4,1.1-2.4,2.4v35.8c0,1.3,1.1,2.4,2.4,2.4h50c1.3,0,2.4-1.1,2.4-2.4V450
		C624,448.7,623,447.7,621.7,447.7z M622.6,485.8c0,0.5-0.4,1-1,1h-50c-0.5,0-1-0.4-1-1V450c0-0.5,0.4-1,1-1h50c0.5,0,1,0.4,1,1
		V485.8z"/>
	<circle class="st1" cx="578.8" cy="456.5" r="4.3"/>
	<polygon class="st1" points="602.6,474.6 595.1,453.5 587,473.9 582,465.5 575.3,482.3 619.4,482.3 609.4,467.9 	"/>
</g>
<g>
	<path class="st3" d="M428.6,491.2h-39.7c-0.9,0-1.7,0.7-1.7,1.7V519c0,0.9,0.7,1.7,1.7,1.7h39.7c0.9,0,1.7-0.7,1.7-1.7v-26.2
		C430.2,491.9,429.5,491.2,428.6,491.2z M402.4,514.9v-18l15.6,9L402.4,514.9z"/>
</g>
<path class="st2" d="M297.1,393.8c-13.8,0-25,7.7-25,17.2c0,4.9,3,9.3,7.8,12.5v11.5l8-8c2.8,0.8,5.9,1.2,9.2,1.2
	c13.8,0,25-7.7,25-17.2C322.1,401.5,310.9,393.8,297.1,393.8z"/>
<path class="st1" d="M483.3,382.3l26.1,22.5l-12.3-0.7l8.6,16.9c0.6,1.2,0.1,2.6-1,3.2c-0.3,0.2-0.7,0.3-1.1,0.3
	c-0.9,0-1.7-0.5-2.1-1.3l-8.6-16.9l-6.7,10.4L483.3,382.3z"/>
<g>
	<path class="st2" d="M254.4,432.1l-3.4-1.4c-0.8-0.4-1.8,0-2.1,0.7l-7.4,17.3c-0.3,0.8,0.1,1.7,0.9,2l3.4,1.4
		c0.8,0.4,1.8,0,2.1-0.7l7.4-17.3C255.6,433.3,255.2,432.4,254.4,432.1z"/>
	<path class="st2" d="M261.5,479.6c16.1-37.9-2-45.4-2-45.4l-1.9-0.8l-8.5,20c10,4.3-4.4,38.1-14.4,33.8l-8.7,20.3l2,0.8
		C227.8,508.3,245.4,516.1,261.5,479.6L261.5,479.6z"/>
	<path class="st2" d="M231.4,485.9l-3.4-1.4c-0.8-0.4-1.8,0-2.1,0.7l-7.5,17.6c-0.3,0.8,0.1,1.7,0.9,2l3.4,1.4
		c0.8,0.4,1.8,0,2.1-0.7l7.5-17.6C232.7,487.1,232.2,486.2,231.4,485.9z"/>
</g>
<path class="st3" d="M304.4,504.8c-2,0-3.9,0.8-5.3,2l-16.1-8.6c0.1-0.4,0.1-0.8,0.1-1.2c0-1.1-0.2-2.2-0.7-3.1l12-11.1
	c1.1,0.6,2.3,0.9,3.6,0.9c4.3,0,7.8-3.5,7.8-7.8c0-4.3-3.5-7.8-7.8-7.8c-4.3,0-7.8,3.5-7.8,7.8c0,1.1,0.2,2.2,0.7,3.1l-12,11.1
	c-1.1-0.6-2.3-0.9-3.6-0.9c-4.3,0-7.8,3.5-7.8,7.8c0,4.3,3.5,7.8,7.8,7.8c2,0,3.9-0.8,5.3-2l16.1,8.6c-0.1,0.4-0.1,0.8-0.1,1.2
	c0,4.3,3.5,7.8,7.8,7.8c4.3,0,7.8-3.5,7.8-7.8S308.7,504.8,304.4,504.8z"/>
<g>
	<path class="st2" d="M477.9,515.8c2-1.4,3.3-3.7,3.3-6.3c0-4.3-3.5-7.8-7.8-7.8c-4.3,0-7.8,3.5-7.8,7.8c0,2.6,1.2,4.8,3.2,6.3
		l-25.5,78.4c-0.4,1.3,0.3,2.6,1.6,3.1c0.3,0.1,0.5,0.1,0.8,0.1c1,0,2-0.7,2.3-1.7l3.1-9.6l42.1-3.7l4.1,13.3c0.4,1.3,1.8,2,3,1.6
		c1.3-0.4,2-1.7,1.6-3L477.9,515.8z M485.3,556.4l-20.2-10.1l15.3-5.8L485.3,556.4z M473.3,517.5l5.2,17l-9-5.2L473.3,517.5z
		 M468.6,532.1l10.3,5.9l-13.9,5.3L468.6,532.1z M463.2,548.7l21.2,10.5l-26.3,5.1L463.2,548.7z M452,583l4.7-14.3l31.7,11.2
		L452,583z M460.4,566.8l26.5-5.1l5,16.2L460.4,566.8z"/>
	<path class="st2" d="M482.2,520.3l1.8,2.3c4.1-3.3,6.5-8.2,6.5-13.5c0-9.5-7.8-17.3-17.3-17.3c-9.5,0-17.3,7.8-17.3,17.3
		c0,5.2,2.3,10.2,6.4,13.5l1.8-2.3c-3.4-2.7-5.3-6.8-5.3-11.2c0-7.9,6.5-14.4,14.4-14.4c7.9,0,14.4,6.5,14.4,14.4
		C487.7,513.4,485.7,517.5,482.2,520.3z"/>
	<path class="st2" d="M457.5,535.2l1.5-2.5c-8.4-5.1-13.3-13.9-13.3-23.7c0-15.2,12.4-27.6,27.6-27.6c15.2,0,27.6,12.4,27.6,27.6
		c0,9.2-4.6,17.8-12.2,22.9l1.6,2.4c8.4-5.7,13.5-15.2,13.5-25.3c0-16.8-13.7-30.5-30.5-30.5c-16.8,0-30.5,13.7-30.5,30.5
		C442.7,519.8,448.2,529.6,457.5,535.2z"/>
</g>
<path class="st2" d="M743.1,593.8c-1.3-1.5-3.5-1.6-5-0.3c-1,0.9-1.4,2.2-1.1,3.4l-5.6,5L712,580c-8.9,11.7-8.6,28.5,1.5,39.9
	c10.1,11.5,26.7,13.8,39.4,6.5l-19.3-21.9l5.6-5c1.2,0.4,2.5,0.2,3.5-0.7C744.3,597.5,744.4,595.2,743.1,593.8z M720.7,593.7
	c0,0-11.9,15.2-3.6,24.6c0,0-13.5-14.2-3.5-32.6L720.7,593.7z"/>
<g>
	<path class="st1" d="M693.7,595.9v31.9h-25.8c-2,0-3.7-1.6-3.7-3.7c0-2,1.6-3.7,3.7-3.7h23.3V591h-24.5c-2.7,0-4.9,2.2-4.9,4.9
		v29.5c0,2.7,2.2,4.9,4.9,4.9h29.5v-34.4H693.7z"/>
	<path class="st1" d="M666.7,624.1c0,0.7,0.5,1.2,1.2,1.2c0,0,0,0,0,0h23.3v-2.5h-23.3c0,0,0,0,0,0
		C667.2,622.9,666.7,623.4,666.7,624.1z"/>
</g>
<g>
	<path class="st2" d="M536.6,401.9h-9.2c-0.8,0-1.5,0.7-1.5,1.5v33.6c0,0.8,0.7,1.5,1.5,1.5h9.2c0.8,0,1.5-0.7,1.5-1.5v-33.6
		C538.1,402.6,537.5,401.9,536.6,401.9z M535.1,411.1H529V408h6.1V411.1z"/>
	<path class="st2" d="M551.9,401.9h-9.2c-0.8,0-1.5,0.7-1.5,1.5v33.6c0,0.8,0.7,1.5,1.5,1.5h9.2c0.8,0,1.5-0.7,1.5-1.5v-33.6
		C553.4,402.6,552.7,401.9,551.9,401.9z M550.4,411.1h-6.1V408h6.1V411.1z"/>
	<path class="st2" d="M578.3,432.3L564.5,405c-0.4-0.8-1.3-1.1-2.1-0.7l-8.2,4.1c-0.8,0.4-1.1,1.3-0.7,2.1l13.8,27.3
		c0,0.1,0.1,0.1,0.1,0.2c0.1,0.1,0.1,0.2,0.2,0.3c0.1,0.1,0.2,0.1,0.2,0.2c0.1,0.1,0.2,0.1,0.3,0.1c0.1,0,0.2,0,0.3,0.1
		c0.1,0,0.2,0,0.2,0c0,0,0,0,0.1,0c0.1,0,0.2,0,0.3-0.1c0.1,0,0.2,0,0.3-0.1c0,0,0,0,0,0l8.2-4.1C578.4,433.9,578.7,433,578.3,432.3
		z"/>
</g>
<path class="st3" d="M648.7,604.5c0-8.4-2.5-15.2-5.5-15.3c0,0,0,0,0,0h-3.5c0,0-8.2,6.1-19.9,8.5c-0.4,1.9-0.6,4.2-0.6,6.8
	c0,2.6,0.2,4.9,0.6,6.8c11.7,2.4,19.9,8.5,19.9,8.5h3.5c0,0,0,0,0,0C646.2,619.7,648.7,612.9,648.7,604.5z M642,617.5
	c-0.4,0-0.8-0.4-1-0.7c-0.5-0.6-1-1.5-1.5-2.7c-1-2.6-1.5-6-1.5-9.7c0-3.7,0.5-7.1,1.5-9.7c0.4-1.1,0.9-2.1,1.5-2.7
	c0.2-0.2,0.6-0.7,1-0.7c0.4,0,0.8,0.4,1,0.7c0.5,0.6,1,1.5,1.5,2.7c1,2.6,1.5,6,1.5,9.7c0,3.7-0.5,7.1-1.5,9.7
	c-0.4,1.1-0.9,2.1-1.5,2.7C642.8,617.1,642.4,617.5,642,617.5z M616.4,604.5c0-2.2,0.2-4.3,0.5-6.2c-2,0.3-3.7,0.4-5.9,0.4
	c-2.8,0-2.8,0-2.8,0l-2.3,4v3.7l2.3,4c0,0,0,0,2.8,0c2.2,0,3.9,0.2,5.9,0.4C616.5,608.8,616.4,606.7,616.4,604.5L616.4,604.5z
	 M621.2,613.4l-5.4-1l3.4,13.5c0.2,0.7,0.9,1,1.5,0.8l5-2c0.7-0.3,0.9-1,0.6-1.6L621.2,613.4z M642,609.5c-0.2,0-0.3-0.2-0.4-0.3
	c-0.2-0.2-0.4-0.6-0.6-1c-0.4-1-0.6-2.3-0.6-3.7c0-1.4,0.2-2.7,0.6-3.7c0.2-0.4,0.4-0.8,0.6-1c0.1-0.1,0.2-0.3,0.4-0.3
	c0.2,0,0.3,0.2,0.4,0.3c0.2,0.2,0.4,0.6,0.6,1c0.4,1,0.6,2.3,0.6,3.7c0,1.4-0.2,2.7-0.6,3.7c-0.2,0.4-0.4,0.8-0.6,1
	C642.3,609.4,642.2,609.5,642,609.5z"/>
<path class="st1" d="M262.8,545.1h5.3v5.3h-5.3V545.1z M270.8,545.1h5.3v5.3h-5.3V545.1z M278.8,545.1h5.3v5.3h-5.3V545.1z
	 M254.8,561.1h5.3v5.3h-5.3V561.1z M262.8,561.1h5.3v5.3h-5.3V561.1z M270.8,561.1h5.3v5.3h-5.3V561.1z M262.8,553.1h5.3v5.3h-5.3
	V553.1z M270.8,553.1h5.3v5.3h-5.3V553.1z M278.8,553.1h5.3v5.3h-5.3V553.1z M254.8,553.1h5.3v5.3h-5.3V553.1z M284.2,529v2.7h-5.3
	V529h-18.7v2.7h-5.3V529h-5.3v42.8h40.1V529H284.2z M286.9,569.1h-34.8v-29.4h34.8V569.1z"/>
<path class="st3" d="M275.1,607.2c0,5.1,4.7,9.3,10.4,9.3c5.8,0,10.4-4.1,10.4-9.3c0-5.1-4.7-9.3-10.4-9.3
	C279.8,597.9,275.1,602.1,275.1,607.2z M308,591.5h-11.2c-0.8-2.9-1.6-5.7-4.8-5.7h-12.8c-3.2,0-4,2.8-4.8,5.7h-11.2
	c-1.8,0-3.2,1.3-3.2,2.8V620c0,1.6,1.4,2.9,3.2,2.9H308c1.8,0,3.2-1.3,3.2-2.9v-25.7C311.2,592.8,309.8,591.5,308,591.5z
	 M285.5,619.8c-7.9,0-14.2-5.7-14.2-12.7c0-7,6.4-12.7,14.2-12.7s14.2,5.7,14.2,12.7C299.8,614.2,293.4,619.8,285.5,619.8z
	 M308,600.1h-6.4v-2.8h6.4V600.1z"/>
<g>
	<circle class="st2" cx="319.4" cy="466.9" r="3.7"/>
	<circle class="st2" cx="343.9" cy="466.9" r="3.7"/>
	<path class="st2" d="M347.5,450.9v-14.7h-29.4c0-1.4-1.1-2.4-2.4-2.4h-7.3v2.4h4.9l1.8,15.8c-1.1,0.9-1.8,2.3-1.8,3.8
		c0,2.7,2.2,4.9,4.9,4.9h29.4v-2.5h-29.4c-1.4,0-2.4-1.1-2.4-2.4c0,0,0,0,0,0L347.5,450.9z"/>
</g>
<path class="st2" d="M495.6,345.2c-0.2-7.8-6.6-14.1-14.5-14.1c-4.6,0-8.7,2.2-11.4,5.5c-1.5-1.9-3.8-3.2-6.4-3.2
	c-4.5,0-8.1,3.6-8.1,8.1c0,0.4,0,0.8,0.1,1.1c-0.7-0.1-1.4-0.2-2.1-0.2c-6.5,0-11.8,5.3-11.8,11.8c0,6.5,5.3,11.8,11.8,11.8h5.6
	l13.8,14.2l13.8-14.2h6.8c5.8,0,10.6-4.8,10.6-10.6C503.7,350.5,500.2,346.3,495.6,345.2L495.6,345.2z M472.6,373.9l-11.7-11.7h7.8
	v-11.7h7.8v11.7h7.8L472.6,373.9z"/>
<path class="st3" d="M223.5,537.1c0.2-0.8,0.3-1.6,0.3-2.4c0-6.1-5-11.1-11.1-11.1c-1,0-1.9,0.1-2.8,0.4c-1.7-5.3-6.7-9.2-12.6-9.2
	c-6,0-11.1,4-12.7,9.6c-1.6-0.5-3.2-0.7-5-0.7c-9.8,0-17.7,7.9-17.7,17.7c0,9.8,7.9,17.7,17.7,17.7h8.9v13.3H206V559h15.5
	c6.1,0,11.1-5,11.1-11.1C232.6,542.5,228.6,538,223.5,537.1z M201.6,554.6v13.3h-8.9v-13.3h-11.1l15.5-15.5l15.5,15.5H201.6z"/>
<path class="st1" d="M238.8,606c-2.5-4.3-1-9.8,3.3-12.2l-4.6-8c-1.3,0.8-2.9,1.2-4.5,1.2c-4.9,0-8.9-4-8.9-9h-9.2
	c0,1.5-0.4,3.1-1.2,4.5c-2.5,4.3-8,5.7-12.3,3.3l-4.6,8c1.3,0.8,2.5,1.9,3.3,3.3c2.5,4.3,1,9.7-3.3,12.2l4.6,8
	c1.3-0.8,2.8-1.2,4.5-1.2c4.9,0,8.9,4,8.9,9h9.2c0-1.5,0.4-3.1,1.2-4.5c2.5-4.3,7.9-5.7,12.2-3.3l4.6-8
	C240.7,608.5,239.6,607.4,238.8,606L238.8,606z M219.4,611c-5.3,0-9.5-4.3-9.5-9.5c0-5.3,4.3-9.5,9.5-9.5c5.3,0,9.5,4.3,9.5,9.5
	C228.9,606.7,224.6,611,219.4,611z"/>
<path class="st1" d="M330.6,373.4c2.1-2.1,4.9-3.1,7.7-3l-0.1,3.6c-1.8,0-3.7,0.6-5.1,2c-1.4,1.4-2.1,3.2-2.2,5l-3.6-0.1
	C327.4,378.3,328.5,375.5,330.6,373.4z M320.2,380.9c0.1-4.8,2-9.3,5.4-12.6c3.4-3.3,8-5.1,12.8-5.1l-0.1,3.6
	c-3.8-0.1-7.5,1.4-10.2,4.1c-2.8,2.7-4.3,6.3-4.4,10.1L320.2,380.9z M329,357.7c3-1.2,6.2-1.7,9.5-1.7l0,0l-0.1,3.6
	c-5.8-0.1-11.2,2.1-15.3,6.1c-4.1,4-6.5,9.4-6.5,15.1l-3.6-0.1c0-3.3,0.7-6.4,2-9.4c1.3-3.1,3.2-5.9,5.6-8.2
	C323.1,360.8,325.9,359,329,357.7L329,357.7z M335.6,381.1c-0.7-0.7-0.7-1.8,0-2.5c0.7-0.7,1.8-0.7,2.5,0c0.7,0.7,0.7,1.8,0,2.5
	C337.4,381.9,336.3,381.9,335.6,381.1z"/>
<g>
	<path class="st3" d="M519.7,363.4c-6.7,0-12.2,2.1-12.2,4.7v3.8c0,2.6,5.5,4.7,12.2,4.7c6.7,0,12.2-2.1,12.2-4.7v-3.8
		C531.9,365.5,526.4,363.4,519.7,363.4z"/>
	<path class="st3" d="M519.7,379.5c-6.7,0-12.2-2.1-12.2-4.7v5.7c0,2.6,5.5,4.7,12.2,4.7c6.7,0,12.2-2.1,12.2-4.7v-5.7
		C531.9,377.4,526.4,379.5,519.7,379.5z"/>
	<path class="st3" d="M519.7,388.1c-6.7,0-12.2-2.1-12.2-4.7v5.7c0,2.6,5.5,4.7,12.2,4.7c6.7,0,12.2-2.1,12.2-4.7v-5.7
		C531.9,386,526.4,388.1,519.7,388.1z"/>
</g>
<path class="st2" d="M143.8,595.4l16.1-16.1h-12v-16.1h-8v16.1h-12L143.8,595.4z M158.4,588.8l-4.5,4.5l16.3,6.1l-26.4,9.8
	l-26.4-9.8l16.3-6.1l-4.5-4.5l-17.5,6.6v16.1l32.1,12l32.1-12v-16.1L158.4,588.8z"/>
<g>
	<polygon class="st3" points="706.3,551.2 694.8,543.5 685.9,551.2 697.4,558.8 	"/>
	<polygon class="st3" points="677,543.5 665.6,551.2 674.5,558.8 685.9,551.2 	"/>
	<polygon class="st3" points="685.9,565.1 694.8,572.8 706.3,566.4 697.4,558.8 	"/>
	<polygon class="st3" points="665.6,566.4 677,572.8 685.9,565.1 674.5,558.8 	"/>
	<polygon class="st3" points="685.9,568.5 677.4,575.9 672,572.9 672,576.6 685.9,582.9 699.9,576.6 699.9,572.9 694.5,575.9 	"/>
</g>
<path class="st3" d="M425.6,373.6c-30.9,0-55.9,25-55.9,55.9c0,30.9,25,55.9,55.9,55.9c30.9,0,55.9-25,55.9-55.9
	C481.5,398.6,456.5,373.6,425.6,373.6z M425.6,478.5c-6.9,0-13.4-1.4-19.4-4l25.5-28.7c0.6-0.6,0.9-1.5,0.9-2.3V433
	c0-1.9-1.6-3.5-3.5-3.5c-12.3,0-25.4-12.8-25.5-13c-0.7-0.7-1.5-1-2.5-1h-14c-1.9,0-3.5,1.6-3.5,3.5v21c0,1.3,0.7,2.5,1.9,3.1
	l12.1,6v20.5c-12.7-8.8-21-23.5-21-40.2c0-7.5,1.7-14.6,4.7-21h12.8c0.9,0,1.8-0.4,2.5-1l14-14c0.7-0.7,1-1.5,1-2.5v-8.5
	c4.4-1.3,9.1-2,14-2c7.7,0,15,1.8,21.4,4.9c-0.5,0.4-0.9,0.8-1.3,1.2c-4,4-6.1,9.2-6.1,14.8c0,5.6,2.2,10.9,6.1,14.8
	c4,4,9.3,6.1,14.8,6.1c0.3,0,0.7,0,1,0c1.5,5.7,4.2,20.4-0.9,40.7c-0.1,0.2-0.1,0.4-0.1,0.6C451.7,472.8,439.3,478.5,425.6,478.5
	L425.6,478.5z"/>
<path class="st3" d="M583.1,582h-27.6c-3.8,0-6.9,3.1-6.9,6.9v27.6c0,3.8,3.1,6.9,6.9,6.9h13.8v-18.1h-5.2v-5.2h5.2v-3.9
	c0-3.6,2.9-6.5,6.5-6.5h6.5v5.2h-6.5c-0.7,0-1.3,0.6-1.3,1.3v3.9h7.1l-1.3,5.2h-5.8v18.1h8.6c3.8,0,6.9-3.1,6.9-6.9v-27.6
	C590,585.1,587,582,583.1,582z"/>
<path class="st3" d="M391.4,574.2c-3.5,0-6.3,2.8-6.3,6.3c0,3.5,2.8,6.3,6.3,6.3c3.5,0,6.3-2.8,6.3-6.3
	C397.7,577.1,394.9,574.2,391.4,574.2z M385.2,555.7v9c5.9,0,11.4,2.3,15.6,6.5c4.2,4.2,6.5,9.7,6.5,15.6h9.1
	C416.3,569.6,402.3,555.7,385.2,555.7z M385.2,539.7v9c21,0,38.1,17.1,38.1,38.1h9.1C432.3,560.8,411.2,539.7,385.2,539.7z"/>
<g>
	<path class="st2" d="M340.3,501.4h-3.2v22.3h3.2c0.9,0,1.6-0.7,1.6-1.6V503C341.9,502.1,341.2,501.4,340.3,501.4z"/>
	<path class="st2" d="M361,503v19.1c0,0.9,0.7,1.6,1.6,1.6h3.2v-22.3h-3.2C361.8,501.4,361,502.1,361,503z"/>
	<polygon class="st2" points="377,498.2 377,498.2 377,498.2 	"/>
	<path class="st2" d="M351.5,472.8c-14.1,0-25.5,11.4-25.5,25.5c0,3.1,0.5,6,1.5,8.7c-1,1.7-1.5,3.6-1.5,5.6c0,5.6,4.2,10.3,9.6,11
		v-22.1c-1.6,0.2-3.1,0.8-4.4,1.6c-0.3-1.3-0.4-2.7-0.4-4.1c0-11.4,9.3-20.7,20.7-20.7c11.4,0,20.7,9.3,20.7,20.7
		c0,1.4-0.1,2.8-0.4,4.1c-1.3-0.8-2.8-1.4-4.4-1.6v22.1c5.4-0.8,9.6-5.4,9.6-11c0-2.1-0.6-4-1.5-5.6c1-2.7,1.5-5.6,1.5-8.7
		C377,484.2,365.6,472.8,351.5,472.8z"/>
</g>
<path class="st1" d="M376.6,334.7c-3.9,0-7.2,3.2-8.8,6.5c-1.5-3.3-4.9-6.5-8.8-6.5c-5.4,0-9.7,4.3-9.7,9.7
	c0,10.9,11,13.7,18.5,24.5c7.1-10.7,18.5-14,18.5-24.5C386.3,339,382,334.7,376.6,334.7z"/>
<path class="st1" d="M489.4,604.7v-4.3h-30.3v23.8c0,1.2,1,2.2,2.2,2.2h29.2c1.8,0,3.2-1.5,3.2-3.2v-18.4H489.4z M487.2,624.2h-26
	v-21.7h26V624.2z M463.4,606.9h21.7v2.2h-21.7V606.9z M476.4,611.2h8.7v2.2h-8.7V611.2z M476.4,615.6h8.7v2.2h-8.7V615.6z
	 M476.4,619.9h6.5v2.2h-6.5V619.9z M463.4,611.2h10.8v10.8h-10.8V611.2z"/>
<path class="st1" d="M364.8,584.4c-4.3-5-10.6-8.2-17.7-8.2c-12.9,0-23.3,10.5-23.3,23.3c0,12.9,10.5,23.3,23.3,23.3
	c7.1,0,13.4-3.2,17.7-8.2L350,599.6L364.8,584.4z M352.9,581.8c1.8,0,3.3,1.5,3.3,3.3c0,1.8-1.5,3.3-3.3,3.3c-1.8,0-3.3-1.5-3.3-3.3
	C349.7,583.2,351.1,581.8,352.9,581.8z"/>
<path class="st1" d="M516.8,580.8l-9.3,24.3h9.5l-8.9,24.3l31.3-30.4h-15.5l11-18.3H516.8z"/>
<path class="st3" d="M437.6,338.2c-1.4,0.6-2.9,1.1-4.5,1.2c1.6-1,2.9-2.5,3.5-4.4c-1.5,0.9-3.2,1.6-5,1.9c-1.4-1.5-3.5-2.5-5.8-2.5
	c-4.4,0-7.9,3.5-7.9,7.9c0,0.6,0.1,1.2,0.2,1.8c-6.6-0.3-12.4-3.5-16.3-8.3c-0.7,1.2-1.1,2.5-1.1,4c0,2.7,1.4,5.2,3.5,6.6
	c-1.3,0-2.5-0.4-3.6-1c0,0,0,0.1,0,0.1c0,3.8,2.7,7,6.3,7.7c-0.7,0.2-1.4,0.3-2.1,0.3c-0.5,0-1,0-1.5-0.1c1,3.1,3.9,5.4,7.4,5.5
	c-2.7,2.1-6.1,3.4-9.8,3.4c-0.6,0-1.3,0-1.9-0.1c3.5,2.2,7.7,3.6,12.1,3.6c14.5,0,22.5-12,22.5-22.5c0-0.3,0-0.7,0-1
	C435.2,341.1,436.5,339.7,437.6,338.2L437.6,338.2z"/>
<g>
	<path class="st3" d="M599.6,535.5l-15.4-15.4c-1-1-2.6-1-3.6,0l-19.4,19.4c-1,1-1,2.6,0,3.6l15.4,15.4c1,1,2.6,1,3.6,0l19.4-19.4
		C600.6,538.1,600.6,536.5,599.6,535.5z"/>
	
		<rect x="561.8" y="543.9" transform="matrix(0.7071 -0.7071 0.7071 0.7071 -226.5748 562.0402)" class="st3" width="6.7" height="21.3"/>
	<path class="st3" d="M587.4,506.8c-2.2,5.4,0.2,13.4,6.4,19.6c6.2,6.2,14.2,8.7,19.6,6.4L587.4,506.8z"/>
	<path class="st3" d="M613.7,518.3c0-3.2-1.2-6.3-3.6-8.7c-2.4-2.4-5.6-3.6-8.7-3.6l0,4.1c2.1,0,4.2,0.8,5.8,2.4
		c1.6,1.6,2.4,3.7,2.4,5.8H613.7z"/>
	<path class="st3" d="M613,506.6c3.1,3.1,4.8,7.2,4.8,11.6h4.1c0-5.5-2.1-10.7-6-14.6c-3.9-3.9-9.1-6-14.5-6v4.1
		C605.8,501.8,609.9,503.5,613,506.6z"/>
	
		<ellipse transform="matrix(0.7072 -0.707 0.707 0.7072 -188.8803 577.4995)" class="st3" cx="602.8" cy="516.8" rx="2.1" ry="2.1"/>
	
		<rect x="542.5" y="485.8" transform="matrix(0.7071 -0.7071 0.7071 0.7071 -198.7804 539.7949)" class="st3" width="19.3" height="48.1"/>
	
		<rect x="599.9" y="543.4" transform="matrix(0.7071 -0.7071 0.7071 0.7071 -222.5338 597.1105)" class="st3" width="19.3" height="47.5"/>
</g>
<circle class="st4" cx="389.6" cy="225.4" r="11.6"/>
<polygon class="st4" points="410.3,236.1 422.7,214.6 435.1,236.1 "/>
<rect x="447.5" y="215.1" class="st4" width="20.5" height="20.5"/>
</svg>
