<?xml version="1.0" encoding="utf-8"?>
<!-- Generator: Adobe Illustrator 19.2.1, SVG Export Plug-In . SVG Version: 6.00 Build 0)  -->
<svg version="1.1" id="Layer_1" xmlns="http://www.w3.org/2000/svg" xmlns:xlink="http://www.w3.org/1999/xlink" x="0px" y="0px"
	 viewBox="0 0 864 648" style="enable-background:new 0 0 864 648;" xml:space="preserve">
<style type="text/css">
	.st0{fill:none;stroke:#000000;stroke-width:2;stroke-miterlimit:10;stroke-dasharray:2,3;}
	.st1{fill:#FFFFFF;}
	.st2{fill:#F9ED32;}
	.st3{fill:#27AAE1;}
	.st4{fill:none;stroke:#000000;stroke-width:2;stroke-miterlimit:10;}
</style>
<g>
	<path class="st0" d="M144.1,556v-76.1c0,0-0.1-20.8,23.9-20.8h29.1c0,0,12.3,0.5,12.3,12.3c0,0-3.2,22.8,23,22.8h51.1
		c0,0,13.5-2.5,13.5,12.5v26.7c0,0,0,12.4,15.1,12.4h53.7c0,0,11.1-0.1,11.1-12.4v-16.8c0,0-2.9-11.3,18.6-11.3h27.5
		c0,0,14.5,1.4,14.5-11.1v-42.6"/>
	<path class="st0" d="M204.5,575.8h-12c0,0-12.5,1.6-12.5-11.8c0-13.3,0-85.1,0-85.1s0-11.6,12.3-11.6h116c0,0,11-0.3,11-12v-43.6
		c0,0-2.8-14.2,10.2-14.2H373"/>
	<path class="st0" d="M259.8,436.3H283c15.8,0,14-13.6,14-13.6v-32.5v-39.8c0,0,0.1-13.9,11.3-13.9h14.8"/>
	<line class="st0" x1="297.1" y1="415.2" x2="326" y2="415.2"/>
	<line class="st0" x1="269.5" y1="494.2" x2="269.5" y2="507.2"/>
	<path class="st0" d="M225.4,519.8c0,0,16-2.2,16,9.1v12.5c0,0-0.7,11.1,14,11.1h35.4c0,0,14.8-1.4,14.8,14.3"/>
	<path class="st0" d="M305.7,581.1c0,0,13.7,2.9,13.7-6.5v-41.1"/>
	<line class="st0" x1="354.6" y1="382.2" x2="354.6" y2="448.7"/>
	<line class="st0" x1="305.7" y1="486.1" x2="333.7" y2="486.1"/>
	<path class="st0" d="M343.9,576.2h18.2c0,0,10.9,1.7,10.9-11.2c0,0-1-11.1,10-11.1h8"/>
	<line class="st0" x1="391" y1="553.9" x2="391" y2="585.1"/>
	<line class="st0" x1="408.7" y1="494.2" x2="408.7" y2="524.3"/>
	<path class="st0" d="M351.5,366.9h-9.6c0,0-8.3,0.3-8.3,9.6v21.1"/>
	<line class="st0" x1="418.3" y1="324.9" x2="456" y2="324.9"/>
	<path class="st0" d="M423.1,314.7v-16.5c0,0,1.5-8.5-11.5-8.5H377c0,0-9.5-1.5-9.5,7.5l0,31.9h17.7c0,0,8.9-0.9,8.9,7.4v33.7"/>
	<path class="st0" d="M394,346.7h-8.9c0,0-8.2,0.8-8.2,8.7c0,0,1,8.7-8.7,8.7h-13.6"/>
	<path class="st0" d="M473.3,397.6h13.6c0,0,9.6,0,9.6,9.6c0,0-2.6,19.5,11,19.5"/>
	<line class="st0" x1="496.5" y1="407.2" x2="532.2" y2="407.2"/>
	<path class="st0" d="M548.6,377.2v-38.4c0-13.2-16.4-14-16.4-14h-41.8v19.7c0,0-2.1,8.9,11.3,8.9h8.3"/>
	<line class="st0" x1="521" y1="343.2" x2="548.6" y2="343.2"/>
	<path class="st0" d="M501.7,386.4h7.7c0,0,7.8-1.7,7.8,7v13.8"/>
	<line class="st0" x1="493.7" y1="370.2" x2="459.1" y2="370.2"/>
	<path class="st0" d="M408.7,512.8h28.4c0,0,11.4-1.3,11.4,9.8c0,0-1.2,9.3,9.2,9.3"/>
	<line class="st0" x1="523" y1="493.5" x2="523" y2="440"/>
	<path class="st0" d="M523,460.9h-5.9c0,0-6.9-1.8-6.9,7.3v64.2c0,0,0.6,7.8-7.8,7.8h-11.9"/>
	<path class="st0" d="M502.4,540.1v15c0,0-0.5,6.2,7,6.2h14"/>
	<line class="st0" x1="476.4" y1="555.1" x2="476.4" y2="575.7"/>
	<line class="st0" x1="490.6" y1="586.5" x2="517.1" y2="586.5"/>
	<path class="st0" d="M569.3,558.2v-9c0,0,0-10.4-14.1-10.4H523"/>
	<path class="st0" d="M544,538.8v-38.7c0,0-0.5-7.7,11.2-7.7"/>
	<line class="st0" x1="541.2" y1="443.6" x2="569.3" y2="443.6"/>
	<path class="st0" d="M569.3,396.7h23.2c0,0,13.3-1.5,13.3,9.8v14.3"/>
	<line class="st0" x1="585.9" y1="578.3" x2="611.7" y2="578.3"/>
	<line class="st0" x1="598.8" y1="578.4" x2="598.8" y2="538.8"/>
	<path class="st0" d="M654,514.3v25.9c0,0-1.9,10.8,10.5,10.8h18v22.4"/>
	<path class="st0" d="M699.9,536.3h22.6c0,0,8.1-0.6,8.1,8.1v37"/>
	<path class="st0" d="M717.5,536.3v-27.1c0,0,1.5-9.1-11.3-9.1h-44.5"/>
	<line class="st0" x1="594.5" y1="461.2" x2="594.5" y2="488.3"/>
	<line class="st0" x1="601.4" y1="500.9" x2="635.5" y2="500.9"/>
	<path class="st0" d="M621.9,500.9v26.8c0,0-2.5,11.9,11.2,11.9h20.8"/>
	<line class="st0" x1="643" y1="539.6" x2="643" y2="562.3"/>
	<path class="st0" d="M232.6,576.3H247c0,0,8.4,1.4,8.4-9.8v-14"/>
	<path class="st0" d="M480,455.4V441c0,0,1.5-7.1-13-7.1"/>
	<path class="st0" d="M297.1,353.5h-44c0,0-16.9-3.1-16.9,16.8v41.9c0,0-1.4,17.5-19,17.5c0,0-20.4,0-20.4,14.7v14.8"/>
	<path class="st0" d="M312.5,336.5v-88.4c0,0-2.4-14.7,14.7-14.7h37.3"/>
	<line class="st0" x1="395.3" y1="289.6" x2="395.3" y2="230.1"/>
	<path class="st0" d="M508.6,324.9v-35.2c0,0,0.4-15.7-15.7-15.7h-36.7c0,0-15.3,1-15.3-14.1v-26.5"/>
</g>
<g>
	<path d="M481.2,16.8H365c-8,0-14.4,6.4-14.4,14.4v205.2c0,8,6.4,14.4,14.4,14.4h116.2c8,0,14.4-6.4,14.4-14.4V31.2
		C495.6,23.2,489.1,16.8,481.2,16.8z M424.2,244.5c-5.9,0-10.7-4.8-10.7-10.7c0-5.9,4.8-10.7,10.7-10.7c5.9,0,10.7,4.8,10.7,10.7
		C434.9,239.7,430.1,244.5,424.2,244.5z M485.9,217h-126V43h126V217z"/>
</g>
<path class="st1" d="M555.2,443.3c0-0.8-0.1-1.6-0.3-2.3c-1.1-4.2-5-7.3-9.6-7.3c-1.9,0-3.8,0.6-5.3,1.5c0,0,0,0,0-0.1
	c0-0.2,0-0.5,0-0.7c0-5.7-4.6-10.4-10.4-10.4c-0.4,0-0.8,0-1.2,0.1c-2.9-5.3-8.5-8.9-15-8.9c-9.5,0-17.1,7.7-17.1,17.1
	c0,0.2,0,0.3,0,0.5c0,0,0,0,0,0c-5.2,0-9.5,4.2-9.5,9.5c0,0.2,0,0.4,0,0.6c0,0.2,0,0.3,0,0.5c0,4.1,3.3,7.5,7.3,7.5h53.7
	c3,0,5.6-1.9,6.8-4.6h0.2c0.2-0.8,0.3-1.7,0.3-2.6c0-0.1,0-0.1,0-0.2C555.2,443.4,555.2,443.3,555.2,443.3z"/>
<g>
	<path class="st2" d="M334.5,522c-0.2,0.1-0.4,0.2-0.6,0.2c-0.2,0-0.4-0.1-0.6-0.2l-4.6-3.1l-20.4,19.7h51.5c0.1,0,0.3,0,0.4,0
		L339,519L334.5,522z"/>
	<path class="st2" d="M329.2,516.6l4.7,3.1l26.3-18c-0.1,0-0.3,0-0.4,0H308c-0.3,0-0.6,0.1-0.8,0.2L329.2,516.6
		C329.2,516.6,329.2,516.6,329.2,516.6z"/>
	<path class="st2" d="M305.7,503.6c0,0.1,0,0.3,0,0.4v32.4c0,0.5,0.2,1,0.4,1.3l20.7-20L305.7,503.6z"/>
	<path class="st2" d="M362,503.3l-21.1,14.4l21.1,19.6c0.1-0.3,0.2-0.5,0.2-0.9V504C362.1,503.7,362.1,503.5,362,503.3z"/>
</g>
<g>
	<path class="st2" d="M649.5,475.3c-10.9,0-19.7,8.8-19.7,19.7c0,2.3,0.4,4.6,1.1,6.6c1.9,8.6,6.7,17.1,18.6,31.9
		c11.8-14.8,16.7-23.3,18.5-31.9c0.7-2.1,1.1-4.3,1.1-6.6C669.2,484.1,660.4,475.3,649.5,475.3z M649.7,505
		c-5.9,0-10.6-4.8-10.6-10.6c0-5.9,4.8-10.6,10.6-10.6c5.9,0,10.6,4.8,10.6,10.6C660.3,500.3,655.6,505,649.7,505z"/>
</g>
<g>
	<path class="st2" d="M528.9,501.6h-11.7c-1.8,0-3.3,1.5-3.3,3.3v13c0,1.8,1.4,3.2,3.2,3.3v20c0,1.8,1.5,3.3,3.3,3.3h4.8
		c1.8,0,3.3-1.5,3.3-3.3v-20h0.4c1.8,0,3.3-1.5,3.3-3.3v-13C532.2,503.1,530.7,501.6,528.9,501.6z"/>
	<circle class="st2" cx="523" cy="494.2" r="5.9"/>
</g>
<g>
	<path class="st1" d="M359.3,357.4h-8.7c-2,0-3.5,1.5-3.5,3.4l-2.5,17c0,1.8,2.4,3.2,4.3,3.2l0.5,17c0,1.9,1.6,3.4,3.5,3.4l2.7,0.2
		c2,0,3.5-1.5,3.5-3.4l0.5-17h0.4c2,0,4.4-1.3,4.4-3.2l-1.8-17.2C362.8,358.9,361.3,357.4,359.3,357.4z"/>
	<ellipse class="st1" cx="354.9" cy="350.4" rx="5.3" ry="5.8"/>
</g>
<polygon class="st2" points="448.5,585.1 417.5,567.2 417.5,576.1 380.2,576.1 380.2,594 417.5,594 417.5,603 "/>
<g>
	<path class="st1" d="M621.7,420.8h-50c-1.3,0-2.4,1.1-2.4,2.4v35.8c0,1.3,1.1,2.4,2.4,2.4h50c1.3,0,2.4-1.1,2.4-2.4v-35.8
		C624,421.8,623,420.8,621.7,420.8z M622.6,458.9c0,0.5-0.4,1-1,1h-50c-0.5,0-1-0.4-1-1v-35.8c0-0.5,0.4-1,1-1h50c0.5,0,1,0.4,1,1
		V458.9z"/>
	<circle class="st1" cx="578.8" cy="429.6" r="4.3"/>
	<polygon class="st1" points="602.6,447.7 595.1,426.6 587,447 582,438.6 575.3,455.4 619.4,455.4 609.4,441 	"/>
</g>
<g>
	<path class="st3" d="M428.6,464.3h-39.7c-0.9,0-1.7,0.7-1.7,1.7v26.2c0,0.9,0.7,1.7,1.7,1.7h39.7c0.9,0,1.7-0.7,1.7-1.7v-26.2
		C430.2,465,429.5,464.3,428.6,464.3z M402.4,488v-18l15.6,9L402.4,488z"/>
</g>
<path class="st2" d="M297.1,366.9c-13.8,0-25,7.7-25,17.2c0,4.9,3,9.3,7.8,12.5V408l8-8c2.8,0.8,5.9,1.2,9.2,1.2
	c13.8,0,25-7.7,25-17.2C322.1,374.6,310.9,366.9,297.1,366.9z"/>
<path class="st1" d="M483.3,355.4l26.1,22.5l-12.3-0.7l8.6,16.9c0.6,1.2,0.1,2.6-1,3.2c-0.3,0.2-0.7,0.3-1.1,0.3
	c-0.9,0-1.7-0.5-2.1-1.3l-8.6-16.9l-6.7,10.4L483.3,355.4z"/>
<g>
	<path class="st2" d="M254.4,405.2l-3.4-1.4c-0.8-0.4-1.8,0-2.1,0.7l-7.4,17.3c-0.3,0.8,0.1,1.7,0.9,2l3.4,1.4
		c0.8,0.4,1.8,0,2.1-0.7l7.4-17.3C255.6,406.4,255.2,405.5,254.4,405.2z"/>
	<path class="st2" d="M261.5,452.7c16.1-37.9-2-45.4-2-45.4l-1.9-0.8l-8.5,20c10,4.3-4.4,38.1-14.4,33.8l-8.7,20.3l2,0.8
		C227.8,481.5,245.4,489.2,261.5,452.7L261.5,452.7z"/>
	<path class="st2" d="M231.4,459l-3.4-1.4c-0.8-0.4-1.8,0-2.1,0.7l-7.5,17.6c-0.3,0.8,0.1,1.7,0.9,2l3.4,1.4c0.8,0.4,1.8,0,2.1-0.7
		l7.5-17.6C232.7,460.2,232.2,459.3,231.4,459z"/>
</g>
<path class="st3" d="M304.4,477.9c-2,0-3.9,0.8-5.3,2l-16.1-8.6c0.1-0.4,0.1-0.8,0.1-1.2c0-1.1-0.2-2.2-0.7-3.1l12-11.1
	c1.1,0.6,2.3,0.9,3.6,0.9c4.3,0,7.8-3.5,7.8-7.8c0-4.3-3.5-7.8-7.8-7.8c-4.3,0-7.8,3.5-7.8,7.8c0,1.1,0.2,2.2,0.7,3.1l-12,11.1
	c-1.1-0.6-2.3-0.9-3.6-0.9c-4.3,0-7.8,3.5-7.8,7.8c0,4.3,3.5,7.8,7.8,7.8c2,0,3.9-0.8,5.3-2l16.1,8.6c-0.1,0.4-0.1,0.8-0.1,1.2
	c0,4.3,3.5,7.8,7.8,7.8c4.3,0,7.8-3.5,7.8-7.8C312.1,481.4,308.7,477.9,304.4,477.9z"/>
<g>
	<path class="st2" d="M477.9,488.9c2-1.4,3.3-3.7,3.3-6.3c0-4.3-3.5-7.8-7.8-7.8c-4.3,0-7.8,3.5-7.8,7.8c0,2.6,1.2,4.8,3.2,6.3
		l-25.5,78.4c-0.4,1.3,0.3,2.6,1.6,3.1c0.3,0.1,0.5,0.1,0.8,0.1c1,0,2-0.7,2.3-1.7l3.1-9.6l42.1-3.7l4.1,13.3c0.4,1.3,1.8,2,3,1.6
		c1.3-0.4,2-1.7,1.6-3L477.9,488.9z M485.3,529.6l-20.2-10.1l15.3-5.8L485.3,529.6z M473.3,490.7l5.2,17l-9-5.2L473.3,490.7z
		 M468.6,505.3l10.3,5.9l-13.9,5.3L468.6,505.3z M463.2,521.8l21.2,10.5l-26.3,5.1L463.2,521.8z M452,556.1l4.7-14.3l31.7,11.2
		L452,556.1z M460.4,540l26.5-5.1l5,16.2L460.4,540z"/>
	<path class="st2" d="M482.2,493.4l1.8,2.3c4.1-3.3,6.5-8.2,6.5-13.5c0-9.5-7.8-17.3-17.3-17.3c-9.5,0-17.3,7.8-17.3,17.3
		c0,5.2,2.3,10.2,6.4,13.5l1.8-2.3c-3.4-2.7-5.3-6.8-5.3-11.2c0-7.9,6.5-14.4,14.4-14.4c7.9,0,14.4,6.5,14.4,14.4
		C487.7,486.6,485.7,490.7,482.2,493.4z"/>
	<path class="st2" d="M457.5,508.3l1.5-2.5c-8.4-5.1-13.3-13.9-13.3-23.7c0-15.2,12.4-27.6,27.6-27.6c15.2,0,27.6,12.4,27.6,27.6
		c0,9.2-4.6,17.8-12.2,22.9l1.6,2.4c8.4-5.7,13.5-15.2,13.5-25.3c0-16.8-13.7-30.5-30.5-30.5c-16.8,0-30.5,13.7-30.5,30.5
		C442.7,492.9,448.2,502.7,457.5,508.3z"/>
</g>
<path class="st2" d="M743.1,566.9c-1.3-1.5-3.5-1.6-5-0.3c-1,0.9-1.4,2.2-1.1,3.4l-5.6,5L712,553.1c-8.9,11.7-8.6,28.5,1.5,39.9
	c10.1,11.5,26.7,13.8,39.4,6.5l-19.3-21.9l5.6-5c1.2,0.4,2.5,0.2,3.5-0.7C744.3,570.6,744.4,568.4,743.1,566.9z M720.7,566.8
	c0,0-11.9,15.2-3.6,24.6c0,0-13.5-14.2-3.5-32.6L720.7,566.8z"/>
<g>
	<path class="st1" d="M693.7,569v31.9h-25.8c-2,0-3.7-1.6-3.7-3.7c0-2,1.6-3.7,3.7-3.7h23.3v-29.5h-24.5c-2.7,0-4.9,2.2-4.9,4.9
		v29.5c0,2.7,2.2,4.9,4.9,4.9h29.5V569H693.7z"/>
	<path class="st1" d="M666.7,597.2c0,0.7,0.5,1.2,1.2,1.2c0,0,0,0,0,0h23.3V596h-23.3c0,0,0,0,0,0
		C667.2,596,666.7,596.5,666.7,597.2z"/>
</g>
<g>
	<path class="st2" d="M536.6,375h-9.2c-0.8,0-1.5,0.7-1.5,1.5v33.6c0,0.8,0.7,1.5,1.5,1.5h9.2c0.8,0,1.5-0.7,1.5-1.5v-33.6
		C538.1,375.7,537.5,375,536.6,375z M535.1,384.2H529v-3.1h6.1V384.2z"/>
	<path class="st2" d="M551.9,375h-9.2c-0.8,0-1.5,0.7-1.5,1.5v33.6c0,0.8,0.7,1.5,1.5,1.5h9.2c0.8,0,1.5-0.7,1.5-1.5v-33.6
		C553.4,375.7,552.7,375,551.9,375z M550.4,384.2h-6.1v-3.1h6.1V384.2z"/>
	<path class="st2" d="M578.3,405.4l-13.8-27.3c-0.4-0.8-1.3-1.1-2.1-0.7l-8.2,4.1c-0.8,0.4-1.1,1.3-0.7,2.1l13.8,27.3
		c0,0.1,0.1,0.1,0.1,0.2c0.1,0.1,0.1,0.2,0.2,0.3c0.1,0.1,0.2,0.1,0.2,0.2c0.1,0.1,0.2,0.1,0.3,0.1c0.1,0,0.2,0,0.3,0.1
		c0.1,0,0.2,0,0.2,0c0,0,0,0,0.1,0c0.1,0,0.2,0,0.3-0.1c0.1,0,0.2,0,0.3-0.1c0,0,0,0,0,0l8.2-4.1
		C578.4,407.1,578.7,406.1,578.3,405.4z"/>
</g>
<path class="st3" d="M648.7,577.6c0-8.4-2.5-15.2-5.5-15.3c0,0,0,0,0,0h-3.5c0,0-8.2,6.1-19.9,8.5c-0.4,1.9-0.6,4.2-0.6,6.8
	c0,2.6,0.2,4.9,0.6,6.8c11.7,2.4,19.9,8.5,19.9,8.5h3.5c0,0,0,0,0,0C646.2,592.9,648.7,586,648.7,577.6z M642,590.6
	c-0.4,0-0.8-0.4-1-0.7c-0.5-0.6-1-1.5-1.5-2.7c-1-2.6-1.5-6-1.5-9.7c0-3.7,0.5-7.1,1.5-9.7c0.4-1.1,0.9-2.1,1.5-2.7
	c0.2-0.2,0.6-0.7,1-0.7c0.4,0,0.8,0.4,1,0.7c0.5,0.6,1,1.5,1.5,2.7c1,2.6,1.5,6,1.5,9.7c0,3.7-0.5,7.1-1.5,9.7
	c-0.4,1.1-0.9,2.1-1.5,2.7C642.8,590.2,642.4,590.6,642,590.6z M616.4,577.6c0-2.2,0.2-4.3,0.5-6.2c-2,0.3-3.7,0.4-5.9,0.4
	c-2.8,0-2.8,0-2.8,0l-2.3,4v3.7l2.3,4c0,0,0,0,2.8,0c2.2,0,3.9,0.2,5.9,0.4C616.5,581.9,616.4,579.8,616.4,577.6L616.4,577.6z
	 M621.2,586.5l-5.4-1l3.4,13.5c0.2,0.7,0.9,1,1.5,0.8l5-2c0.7-0.3,0.9-1,0.6-1.6L621.2,586.5z M642,582.6c-0.2,0-0.3-0.2-0.4-0.3
	c-0.2-0.2-0.4-0.6-0.6-1c-0.4-1-0.6-2.3-0.6-3.7c0-1.4,0.2-2.7,0.6-3.7c0.2-0.4,0.4-0.8,0.6-1c0.1-0.1,0.2-0.3,0.4-0.3
	c0.2,0,0.3,0.2,0.4,0.3c0.2,0.2,0.4,0.6,0.6,1c0.4,1,0.6,2.3,0.6,3.7c0,1.4-0.2,2.7-0.6,3.7c-0.2,0.4-0.4,0.8-0.6,1
	C642.3,582.5,642.2,582.6,642,582.6z"/>
<path class="st1" d="M262.8,518.2h5.3v5.3h-5.3V518.2z M270.8,518.2h5.3v5.3h-5.3V518.2z M278.8,518.2h5.3v5.3h-5.3V518.2z
	 M254.8,534.2h5.3v5.3h-5.3V534.2z M262.8,534.2h5.3v5.3h-5.3V534.2z M270.8,534.2h5.3v5.3h-5.3V534.2z M262.8,526.2h5.3v5.3h-5.3
	V526.2z M270.8,526.2h5.3v5.3h-5.3V526.2z M278.8,526.2h5.3v5.3h-5.3V526.2z M254.8,526.2h5.3v5.3h-5.3V526.2z M284.2,502.1v2.7
	h-5.3v-2.7h-18.7v2.7h-5.3v-2.7h-5.3v42.8h40.1v-42.8H284.2z M286.9,542.2h-34.8v-29.4h34.8V542.2z"/>
<path class="st3" d="M275.1,580.3c0,5.1,4.7,9.3,10.4,9.3c5.8,0,10.4-4.1,10.4-9.3c0-5.1-4.7-9.3-10.4-9.3
	C279.8,571,275.1,575.2,275.1,580.3z M308,564.6h-11.2c-0.8-2.9-1.6-5.7-4.8-5.7h-12.8c-3.2,0-4,2.8-4.8,5.7h-11.2
	c-1.8,0-3.2,1.3-3.2,2.8v25.7c0,1.6,1.4,2.9,3.2,2.9H308c1.8,0,3.2-1.3,3.2-2.9v-25.7C311.2,565.9,309.8,564.6,308,564.6z
	 M285.5,592.9c-7.9,0-14.2-5.7-14.2-12.7c0-7,6.4-12.7,14.2-12.7s14.2,5.7,14.2,12.7C299.8,587.3,293.4,592.9,285.5,592.9z
	 M308,573.2h-6.4v-2.8h6.4V573.2z"/>
<g>
	<circle class="st2" cx="319.4" cy="440" r="3.7"/>
	<circle class="st2" cx="343.9" cy="440" r="3.7"/>
	<path class="st2" d="M347.5,424.1v-14.7h-29.4c0-1.4-1.1-2.4-2.4-2.4h-7.3v2.4h4.9l1.8,15.8c-1.1,0.9-1.8,2.3-1.8,3.8
		c0,2.7,2.2,4.9,4.9,4.9h29.4v-2.5h-29.4c-1.4,0-2.4-1.1-2.4-2.4c0,0,0,0,0,0L347.5,424.1z"/>
</g>
<path class="st2" d="M495.6,318.3c-0.2-7.8-6.6-14.1-14.5-14.1c-4.6,0-8.7,2.2-11.4,5.5c-1.5-1.9-3.8-3.2-6.4-3.2
	c-4.5,0-8.1,3.6-8.1,8.1c0,0.4,0,0.8,0.1,1.1c-0.7-0.1-1.4-0.2-2.1-0.2c-6.5,0-11.8,5.3-11.8,11.8c0,6.5,5.3,11.8,11.8,11.8h5.6
	l13.8,14.2l13.8-14.2h6.8c5.8,0,10.6-4.8,10.6-10.6C503.7,323.6,500.2,319.4,495.6,318.3L495.6,318.3z M472.6,347l-11.7-11.7h7.8
	v-11.7h7.8v11.7h7.8L472.6,347z"/>
<path class="st3" d="M223.5,510.2c0.2-0.8,0.3-1.6,0.3-2.4c0-6.1-5-11.1-11.1-11.1c-1,0-1.9,0.1-2.8,0.4c-1.7-5.3-6.7-9.2-12.6-9.2
	c-6,0-11.1,4-12.7,9.6c-1.6-0.5-3.2-0.7-5-0.7c-9.8,0-17.7,7.9-17.7,17.7c0,9.8,7.9,17.7,17.7,17.7h8.9v13.3H206v-13.3h15.5
	c6.1,0,11.1-5,11.1-11.1C232.6,515.6,228.6,511.1,223.5,510.2z M201.6,527.7V541h-8.9v-13.3h-11.1l15.5-15.5l15.5,15.5H201.6z"/>
<path class="st1" d="M238.8,579.1c-2.5-4.3-1-9.8,3.3-12.2l-4.6-8c-1.3,0.8-2.9,1.2-4.5,1.2c-4.9,0-8.9-4-8.9-9h-9.2
	c0,1.5-0.4,3.1-1.2,4.5c-2.5,4.3-8,5.7-12.3,3.3l-4.6,8c1.3,0.8,2.5,1.9,3.3,3.3c2.5,4.3,1,9.7-3.3,12.2l4.6,8
	c1.3-0.8,2.8-1.2,4.5-1.2c4.9,0,8.9,4,8.9,9h9.2c0-1.5,0.4-3.1,1.2-4.5c2.5-4.3,7.9-5.7,12.2-3.3l4.6-8
	C240.7,581.6,239.6,580.5,238.8,579.1L238.8,579.1z M219.4,584.1c-5.3,0-9.5-4.3-9.5-9.5c0-5.3,4.3-9.5,9.5-9.5
	c5.3,0,9.5,4.3,9.5,9.5C228.9,579.9,224.6,584.1,219.4,584.1z"/>
<path class="st1" d="M330.6,346.6c2.1-2.1,4.9-3.1,7.7-3l-0.1,3.6c-1.8,0-3.7,0.6-5.1,2c-1.4,1.4-2.1,3.2-2.2,5l-3.6-0.1
	C327.4,351.4,328.5,348.6,330.6,346.6z M320.2,354c0.1-4.8,2-9.3,5.4-12.6c3.4-3.3,8-5.1,12.8-5.1l-0.1,3.6
	c-3.8-0.1-7.5,1.4-10.2,4.1c-2.8,2.7-4.3,6.3-4.4,10.1L320.2,354z M329,330.9c3-1.2,6.2-1.7,9.5-1.7l0,0l-0.1,3.6
	c-5.8-0.1-11.2,2.1-15.3,6.1c-4.1,4-6.5,9.4-6.5,15.1l-3.6-0.1c0-3.3,0.7-6.4,2-9.4c1.3-3.1,3.2-5.9,5.6-8.2
	C323.1,333.9,325.9,332.1,329,330.9L329,330.9z M335.6,354.2c-0.7-0.7-0.7-1.8,0-2.5c0.7-0.7,1.8-0.7,2.5,0c0.7,0.7,0.7,1.8,0,2.5
	C337.4,355,336.3,355,335.6,354.2z"/>
<g>
	<path class="st3" d="M519.7,336.5c-6.7,0-12.2,2.1-12.2,4.7v3.8c0,2.6,5.5,4.7,12.2,4.7c6.7,0,12.2-2.1,12.2-4.7v-3.8
		C531.9,338.6,526.4,336.5,519.7,336.5z"/>
	<path class="st3" d="M519.7,352.6c-6.7,0-12.2-2.1-12.2-4.7v5.7c0,2.6,5.5,4.7,12.2,4.7c6.7,0,12.2-2.1,12.2-4.7v-5.7
		C531.9,350.5,526.4,352.6,519.7,352.6z"/>
	<path class="st3" d="M519.7,361.2c-6.7,0-12.2-2.1-12.2-4.7v5.7c0,2.6,5.5,4.7,12.2,4.7c6.7,0,12.2-2.1,12.2-4.7v-5.7
		C531.9,359.1,526.4,361.2,519.7,361.2z"/>
</g>
<path class="st2" d="M143.8,568.5l16.1-16.1h-12v-16.1h-8v16.1h-12L143.8,568.5z M158.4,561.9l-4.5,4.5l16.3,6.1l-26.4,9.8
	l-26.4-9.8l16.3-6.1l-4.5-4.5l-17.5,6.6v16.1l32.1,12l32.1-12v-16.1L158.4,561.9z"/>
<g>
	<polygon class="st3" points="706.3,524.3 694.8,516.6 685.9,524.3 697.4,531.9 	"/>
	<polygon class="st3" points="677,516.6 665.6,524.3 674.5,531.9 685.9,524.3 	"/>
	<polygon class="st3" points="685.9,538.3 694.8,545.9 706.3,539.5 697.4,531.9 	"/>
	<polygon class="st3" points="665.6,539.5 677,545.9 685.9,538.3 674.5,531.9 	"/>
	<polygon class="st3" points="685.9,541.6 677.4,549 672,546 672,549.7 685.9,556 699.9,549.7 699.9,546 694.5,549 	"/>
</g>
<path class="st3" d="M425.6,346.7c-30.9,0-55.9,25-55.9,55.9c0,30.9,25,55.9,55.9,55.9c30.9,0,55.9-25,55.9-55.9
	C481.5,371.7,456.5,346.7,425.6,346.7z M425.6,451.6c-6.9,0-13.4-1.4-19.4-4l25.5-28.7c0.6-0.6,0.9-1.5,0.9-2.3v-10.5
	c0-1.9-1.6-3.5-3.5-3.5c-12.3,0-25.4-12.8-25.5-13c-0.7-0.7-1.5-1-2.5-1h-14c-1.9,0-3.5,1.6-3.5,3.5v21c0,1.3,0.7,2.5,1.9,3.1
	l12.1,6v20.5c-12.7-8.8-21-23.5-21-40.2c0-7.5,1.7-14.6,4.7-21h12.8c0.9,0,1.8-0.4,2.5-1l14-14c0.7-0.7,1-1.5,1-2.5v-8.5
	c4.4-1.3,9.1-2,14-2c7.7,0,15,1.8,21.4,4.9c-0.5,0.4-0.9,0.8-1.3,1.2c-4,4-6.1,9.2-6.1,14.8c0,5.6,2.2,10.9,6.1,14.8
	c4,4,9.3,6.1,14.8,6.1c0.3,0,0.7,0,1,0c1.5,5.7,4.2,20.4-0.9,40.7c-0.1,0.2-0.1,0.4-0.1,0.6C451.7,446,439.3,451.6,425.6,451.6
	L425.6,451.6z"/>
<path class="st3" d="M583.1,555.1h-27.6c-3.8,0-6.9,3.1-6.9,6.9v27.6c0,3.8,3.1,6.9,6.9,6.9h13.8v-18.1h-5.2v-5.2h5.2v-3.9
	c0-3.6,2.9-6.5,6.5-6.5h6.5v5.2h-6.5c-0.7,0-1.3,0.6-1.3,1.3v3.9h7.1l-1.3,5.2h-5.8v18.1h8.6c3.8,0,6.9-3.1,6.9-6.9V562
	C590,558.2,587,555.1,583.1,555.1z"/>
<path class="st3" d="M391.4,547.3c-3.5,0-6.3,2.8-6.3,6.3c0,3.5,2.8,6.3,6.3,6.3c3.5,0,6.3-2.8,6.3-6.3
	C397.7,550.2,394.9,547.3,391.4,547.3z M385.2,528.8v9c5.9,0,11.4,2.3,15.6,6.5c4.2,4.2,6.5,9.7,6.5,15.6h9.1
	C416.3,542.8,402.3,528.8,385.2,528.8z M385.2,512.8v9c21,0,38.1,17.1,38.1,38.1h9.1C432.3,533.9,411.2,512.8,385.2,512.8z"/>
<g>
	<path class="st2" d="M340.3,474.5h-3.2v22.3h3.2c0.9,0,1.6-0.7,1.6-1.6v-19.1C341.9,475.3,341.2,474.5,340.3,474.5z"/>
	<path class="st2" d="M361,476.1v19.1c0,0.9,0.7,1.6,1.6,1.6h3.2v-22.3h-3.2C361.8,474.5,361,475.3,361,476.1z"/>
	<polygon class="st2" points="377,471.4 377,471.4 377,471.4 	"/>
	<path class="st2" d="M351.5,445.9c-14.1,0-25.5,11.4-25.5,25.5c0,3.1,0.5,6,1.5,8.7c-1,1.7-1.5,3.6-1.5,5.6c0,5.6,4.2,10.3,9.6,11
		v-22.1c-1.6,0.2-3.1,0.8-4.4,1.6c-0.3-1.3-0.4-2.7-0.4-4.1c0-11.4,9.3-20.7,20.7-20.7c11.4,0,20.7,9.3,20.7,20.7
		c0,1.4-0.1,2.8-0.4,4.1c-1.3-0.8-2.8-1.4-4.4-1.6v22.1c5.4-0.8,9.6-5.4,9.6-11c0-2.1-0.6-4-1.5-5.6c1-2.7,1.5-5.6,1.5-8.7
		C377,457.3,365.6,445.9,351.5,445.9z"/>
</g>
<path class="st1" d="M376.6,307.8c-3.9,0-7.2,3.2-8.8,6.5c-1.5-3.3-4.9-6.5-8.8-6.5c-5.4,0-9.7,4.3-9.7,9.7
	c0,10.9,11,13.7,18.5,24.5c7.1-10.7,18.5-14,18.5-24.5C386.3,312.1,382,307.8,376.6,307.8z"/>
<path class="st1" d="M489.4,577.8v-4.3h-30.3v23.8c0,1.2,1,2.2,2.2,2.2h29.2c1.8,0,3.2-1.5,3.2-3.2v-18.4H489.4z M487.2,597.3h-26
	v-21.7h26V597.3z M463.4,580h21.7v2.2h-21.7V580z M476.4,584.3h8.7v2.2h-8.7V584.3z M476.4,588.7h8.7v2.2h-8.7V588.7z M476.4,593
	h6.5v2.2h-6.5V593z M463.4,584.3h10.8v10.8h-10.8V584.3z"/>
<path class="st1" d="M364.8,557.5c-4.3-5-10.6-8.2-17.7-8.2c-12.9,0-23.3,10.5-23.3,23.3c0,12.9,10.5,23.3,23.3,23.3
	c7.1,0,13.4-3.2,17.7-8.2L350,572.7L364.8,557.5z M352.9,554.9c1.8,0,3.3,1.5,3.3,3.3c0,1.8-1.5,3.3-3.3,3.3c-1.8,0-3.3-1.5-3.3-3.3
	C349.7,556.3,351.1,554.9,352.9,554.9z"/>
<path class="st1" d="M516.8,553.9l-9.3,24.3h9.5l-8.9,24.3l31.3-30.4h-15.5l11-18.3H516.8z"/>
<path class="st3" d="M437.6,311.3c-1.4,0.6-2.9,1.1-4.5,1.2c1.6-1,2.9-2.5,3.5-4.4c-1.5,0.9-3.2,1.6-5,1.9c-1.4-1.5-3.5-2.5-5.8-2.5
	c-4.4,0-7.9,3.5-7.9,7.9c0,0.6,0.1,1.2,0.2,1.8c-6.6-0.3-12.4-3.5-16.3-8.3c-0.7,1.2-1.1,2.5-1.1,4c0,2.7,1.4,5.2,3.5,6.6
	c-1.3,0-2.5-0.4-3.6-1c0,0,0,0.1,0,0.1c0,3.8,2.7,7,6.3,7.7c-0.7,0.2-1.4,0.3-2.1,0.3c-0.5,0-1,0-1.5-0.1c1,3.1,3.9,5.4,7.4,5.5
	c-2.7,2.1-6.1,3.4-9.8,3.4c-0.6,0-1.3,0-1.9-0.1c3.5,2.2,7.7,3.6,12.1,3.6c14.5,0,22.5-12,22.5-22.5c0-0.3,0-0.7,0-1
	C435.2,314.2,436.5,312.9,437.6,311.3L437.6,311.3z"/>
<g>
	<path class="st3" d="M599.6,508.6l-15.4-15.4c-1-1-2.6-1-3.6,0l-19.4,19.4c-1,1-1,2.6,0,3.6l15.4,15.4c1,1,2.6,1,3.6,0l19.4-19.4
		C600.6,511.2,600.6,509.6,599.6,508.6z"/>
	
		<rect x="561.8" y="517" transform="matrix(0.7071 -0.7071 0.7071 0.7071 -207.5599 554.1643)" class="st3" width="6.7" height="21.3"/>
	<path class="st3" d="M587.4,479.9c-2.2,5.4,0.2,13.4,6.4,19.6c6.2,6.2,14.2,8.7,19.6,6.4L587.4,479.9z"/>
	<path class="st3" d="M613.7,491.4c0-3.2-1.2-6.3-3.6-8.7c-2.4-2.4-5.6-3.6-8.7-3.6l0,4.1c2.1,0,4.2,0.8,5.8,2.4
		c1.6,1.6,2.4,3.7,2.4,5.8H613.7z"/>
	<path class="st3" d="M613,479.7c3.1,3.1,4.8,7.2,4.8,11.6h4.1c0-5.5-2.1-10.7-6-14.6c-3.9-3.9-9.1-6-14.5-6v4.1
		C605.8,474.9,609.9,476.6,613,479.7z"/>
	
		<ellipse transform="matrix(0.7072 -0.707 0.707 0.7072 -169.8677 569.6259)" class="st3" cx="602.8" cy="489.9" rx="2.1" ry="2.1"/>
	
		<rect x="542.5" y="458.9" transform="matrix(0.7071 -0.7071 0.7071 0.7071 -179.7649 531.9185)" class="st3" width="19.3" height="48.1"/>
	
		<rect x="599.9" y="516.6" transform="matrix(0.7071 -0.7071 0.7071 0.7071 -203.519 589.2346)" class="st3" width="19.3" height="47.5"/>
</g>
<circle class="st4" cx="389.6" cy="198.5" r="11.6"/>
<polygon class="st4" points="410.3,209.2 422.7,187.7 435.1,209.2 "/>
<rect x="447.5" y="188.2" class="st4" width="20.5" height="20.5"/>
</svg>
