<?xml version="1.0" standalone="no"?>
<!DOCTYPE svg PUBLIC "-//W3C//DTD SVG 20010904//EN"
 "http://www.w3.org/TR/2001/REC-SVG-20010904/DTD/svg10.dtd">
<svg version="1.0" xmlns="http://www.w3.org/2000/svg"
 width="700.000000pt" height="700.000000pt" viewBox="0 0 700.000000 700.000000"
 preserveAspectRatio="xMidYMid meet">
<metadata>
Created by potrace 1.11, written by Peter Selinger 2001-2013
</metadata>
<g transform="translate(0.000000,700.000000) scale(0.100000,-0.100000)"
fill="#000000" stroke="none">
<path d="M860 5813 c0 -738 4 -1183 9 -1177 6 5 299 502 652 1104 353 602 663
1132 690 1178 l49 82 -700 0 -700 0 0 -1187z"/>
<path d="M3950 6990 c0 -6 1061 -4039 1311 -4984 6 -21 12 -36 14 -34 4 3
1312 4888 1340 5001 l7 27 -1336 0 c-842 0 -1336 -4 -1336 -10z"/>
<path d="M2376 5074 l-697 -1196 995 -1932 995 -1931 530 -3 529 -2 -8 32 c-5
18 -376 1426 -825 3128 -449 1702 -817 3096 -819 3097 -2 2 -317 -535 -700
-1193z"/>
<path d="M6407 2247 c-323 -1205 -590 -2202 -594 -2214 l-5 -23 596 0 596 0 0
2215 c0 1218 -1 2215 -2 2215 -2 0 -268 -987 -591 -2193z"/>
<path d="M860 1542 l0 -1532 796 0 795 0 -44 82 c-25 46 -379 731 -787 1523
-409 792 -747 1444 -751 1450 -5 5 -9 -674 -9 -1523z"/>
</g>
</svg>
