<?xml version="1.0" encoding="UTF-8"?>
<svg id="Layer_1" xmlns="http://www.w3.org/2000/svg" version="1.1" xmlns:xlink="http://www.w3.org/1999/xlink" viewBox="0 0 200 200">
  <!-- Generator: Adobe Illustrator 29.3.0, SVG Export Plug-In . SVG Version: 2.1.0 Build 146)  -->
  <defs>
    <style>
      .st0 {
        fill: #fede6f;
      }
    </style>
  </defs>
  <path d="M117,41.7h11.2v-7h-56.4v7h11.2l-26.7,31.1,43.7,70.1,43.7-70.1-26.7-31.1ZM92.2,41.7h15.7l27.1,31.7-31.5,50.6v-40.5c2.3-1.2,3.9-3.7,3.9-6.5,0-4.1-3.3-7.4-7.4-7.4s-7.4,3.3-7.4,7.4,1.6,5.2,3.9,6.5v40.5l-31.6-50.6,27.3-31.7Z"/>
  <path class="st0" d="M189.2,67.8h-20.3v20.3h5.7c-4.1,33.9-30.7,60.9-64.4,65.5v-5.6h-20.4v5.6c-33-4.5-59.2-30.4-64.1-63.2h5.4v-20.3H10.8v20.3h7.1c5.1,37.1,34.7,66.5,72,71v6.9h20.3v-6.9c38-4.7,68.1-35.1,72.3-73.3h6.8v-20.3h-.1Z"/>
</svg>