<?xml version="1.0" encoding="UTF-8"?>
<svg id="Layer_1" xmlns="http://www.w3.org/2000/svg" version="1.1" xmlns:xlink="http://www.w3.org/1999/xlink" viewBox="0 0 200 200">
  <!-- Generator: Adobe Illustrator 29.3.0, SVG Export Plug-In . SVG Version: 2.1.0 Build 146)  -->
  <defs>
    <style>
      .st0 {
        fill: #74d4d0;
      }
    </style>
  </defs>
  <path class="st0" d="M156.4,58c-4.1-3.2-8.2-6.5-12-9.5-.5-.4-1-.8-1.4-1.1l-.4-.3h-.1s-.1-.2.1,0h-.2v-.2c-.4-.3-.7-.5-1-.7-1.2-.8-2.5-1.5-3.7-2-2.5-1-5.2-1.4-7.6-1.2-2.4.2-4.6,1-6.2,1.9-1.7.9-2.9,1.9-3.9,2.8-.5.4-.9.8-1.2,1.2-.4.4-.6.7-.8.9-.4.5-.7.8-.7.8-.9,1.1-.8,2.7.2,3.6.9.9,2.4.8,3.3,0h0s.2-.3.6-.7c.2-.2.5-.4.8-.7s.7-.5,1.1-.8c.8-.6,1.8-1.2,3-1.6,1.2-.4,2.5-.7,4-.7s3,.5,4.5,1.4c.7.4,1.5.9,2.2,1.5.2,0,.3.3.4.4h0l.2.2.3.3c.4.4.9.9,1.3,1.3,3.5,3.5,7.2,7.2,10.9,10.9,4.8,4.8,9.6,9.7,13.9,14h15c2.8,0,5.5.8,7.9,2.1-5.6-4.1-18.1-13.9-30.6-23.8h.1Z"/>
  <path class="st0" d="M82.2,49.6c-.2-.3-.5-.6-.8-.9-.3-.4-.7-.8-1.2-1.2-1-.9-2.2-1.9-3.9-2.8-1.7-.9-3.8-1.7-6.2-1.9-2.4-.2-5.1.2-7.6,1.2-1.3.5-2.5,1.2-3.7,2-.3.2-.6.4-.9.7h0l-.4.3h0c.2-.2,0,0,0,0h0l-.4.4c-.5.4-.9.7-1.4,1.1-3.8,3-7.9,6.3-12,9.5-12.5,9.9-25,19.8-30.2,23.9,2.4-1.4,5.1-2.2,8-2.2h14.8c4.3-4.3,9.1-9.2,13.9-14l10.9-10.9,1.3-1.3.3-.3.2-.2h0l.4-.4c.7-.6,1.4-1.1,2.2-1.5,1.5-.8,3-1.3,4.5-1.4,1.4,0,2.8.2,4,.7,1.2.4,2.2,1.1,3,1.6.4.3.8.6,1.1.8.3.2.6.5.8.7l.6.6h0c.9.9,2.3,1,3.3,0s1.1-2.5.2-3.6c0,0-.3-.4-.8-.9Z"/>
  <path d="M186.3,81.8c-2.3-1.2-4.8-1.9-7.4-1.9h-35.2c-.5,0-3.3,0-7.1,0-5.1,0-11.4.6-16.7,1.9-2.1.5-4.1,1.2-5.8,2-7.6,3.8-12.6,3.7-12.6,3.7h-.3c0,0-5.1,0-12.6-3.7-1.6-.8-3.5-1.4-5.8-2-4.4-1.1-10-1.7-16.9-1.9-3.9,0-6.7,0-7.2,0H21.4c-2.7,0-5.2.7-7.5,1.9-6.2,3.3-10.5,10.4-10.5,18.7v7c0,25.4,20,46.1,44.7,46.1s44.3-17.6,44.7-41.1c0,0,0-4.2,2.8-6.2,1.1-.8,2.5-1.2,4.3-1.2s2.5.4,3.7,1.2c2.1,1.4,3.4,3.7,3.4,6.2s1.3,41,44.7,41,44.8-31.9,44.8-45.9v-7.5c0-8.1-4.2-15.1-10.2-18.3h0ZM189.5,107.4c0,21.6-17,39.2-37.8,39.2-36.5,0-37.8-32.9-37.8-34.2,0-4.6-2.3-9.1-6.3-11.8-2.3-1.6-4.9-2.5-7.6-2.5s-6.1.8-8.4,2.6c-5.6,4.1-5.6,11.5-5.6,11.7-.4,22.4-19.3,34.2-37.8,34.2s-37.8-17.6-37.8-39.2v-7c0-6.6,4.3-13.7,11.1-13.7h37.5s2.9,0,6.8,0c9.1.3,16.2,1.4,19.8,3.3,8.6,4.3,14.6,4.4,15.8,4.4s7.2,0,15.8-4.4,10.6-3,19.6-3.2h42.1c6.5,0,10.6,6.8,10.6,13.2v7.4h0Z"/>
  <g>
    <path d="M47.9,92l-29.3,29.3c.7,1.9,1.6,3.7,2.6,5.3l34.6-34.6s-7.9,0-7.9,0Z"/>
    <path d="M23.7,92c-8.6,0-8,8-8,8v3.9c0,3.9.4,7.5,1.1,10.8l22.7-22.7h-15.8Z"/>
    <path d="M73.1,92h-3.1l-42.3,42.3c5.8,4.9,13.4,7.4,21.7,7.4s19.7-4.2,25.2-11.4h0c1.9-2.5,3.4-5.4,4.4-8.6,2.2-6.2,3.6-13.7,3.6-20.1,0-10-9.6-9.5-9.6-9.5h0Z"/>
    <path d="M135.9,91.9h-9.6s-9.6-.4-9.6,9.5.7,9.5,1.9,14.2l23.7-23.7h-6.4Z"/>
    <path d="M175.7,91.9h-3.3l.2.2-43,43c5.3,4.1,12.2,6.4,20.3,6.4,18.9,0,33.8-12.8,33.8-37.7v-3.9s.6-8-8-8Z"/>
    <path d="M150.7,91.9l-30.2,30.2c.7,1.9,1.5,3.8,2.5,5.4l35.6-35.6h-7.9Z"/>
  </g>
</svg>