<?xml version="1.0" encoding="UTF-8"?>
<svg id="Layer_1" xmlns="http://www.w3.org/2000/svg" version="1.1" xmlns:xlink="http://www.w3.org/1999/xlink" viewBox="0 0 200 200">
  <!-- Generator: Adobe Illustrator 29.3.0, SVG Export Plug-In . SVG Version: 2.1.0 Build 146)  -->
  <defs>
    <style>
      .st0 {
        fill: #e74634;
      }
    </style>
  </defs>
  <path d="M141.8,17.8L16.8,142.8l39,39,125-125-39-39ZM26.7,142.8L141.8,27.7l29.1,29.1-10.2,10.2-13.2-13.2-4.9,4.9,13.2,13.3-9.9,9.9-13.2-13.2-4.9,5,13.2,13.2-55.6,55.6-13.2-13.2-5,4.9,13.2,13.2-9.9,9.9-13.2-13.2-5,4.9,13.2,13.2-9.7,9.7-29.1-29.1Z"/>
  <path d="M164.8,139.5l1.3,1.3c7.2,7.2,7.2,18.9,0,26.2-3.5,3.5-8.1,5.4-13.1,5.4s-9.6-1.9-13.1-5.4l-1.3-1.3,26.2-26.2M164.8,129.6l-36.1,36.1,6.3,6.3c5,5,11.5,7.5,18,7.5s13.1-2.5,18-7.5c10-10,10-26.1,0-36.1l-6.2-6.3h0Z"/>
  <polygon class="st0" points="75.9 40.6 77 58.5 60.9 62.1 58.8 76.4 40.1 76.4 128.8 165.5 164.6 129.7 75.9 40.6"/>
  <path d="M75.9,40.6l-51.9-15.9,16.1,51.7h18.7l2.1-14.3,16.1-3.6-1.1-17.9ZM61.8,54.8l-2.4.5-4.7,1-.7,4.8-.3,1.7-1,6.7h-7.5l-10.6-34.2,34.6,10.6v1.3c0,0,.5,5.8.5,5.8l-7.9,1.8Z"/>
  <polygon class="st0" points="34.6 35.4 49.7 40 39.5 50.2 34.6 35.4"/>
</svg>